<?xml version="1.0" standalone="no"?>
<!DOCTYPE svg PUBLIC "-//W3C//DTD SVG 1.1//EN" "http://www.w3.org/Graphics/SVG/1.1/DTD/svg11.dtd" >
<svg xmlns="http://www.w3.org/2000/svg">
  <metadata>Created by iconfont</metadata>
  <defs>
  <font id="iconfont" horiz-adv-x="1024">
    <font-face
      font-family="iconfont"
      font-weight="400"
      font-stretch="normal"
      units-per-em="1024"
      ascent="896"
      descent="-128"
    />
      <missing-glyph />
      
      <glyph glyph-name="shuxing_16" unicode="&#59499;" d="M1026.752-2.752a64 64 0 0 0-64-64h-179.2a64 64 0 0 0-64 64v179.2a64 64 0 0 0 64 64h41.6v80h-262.4v-80h41.6a64 64 0 0 0 64-64v-179.2a64 64 0 0 0-64-64h-179.2a64 64 0 0 0-64 64v179.2a64 64 0 0 0 64 64h41.6v80h-262.4v-80h41.6a64 64 0 0 0 64-64v-179.2a64 64 0 0 0-64-64h-179.2a64 64 0 0 0-64 64v179.2a64 64 0 0 0 64 64h41.6v128A48 48 0 0 0 149.76 416l6.528 0.448h310.4V527.616h-41.6a64 64 0 0 0-64 64v179.2a64 64 0 0 0 64 64h179.2a64 64 0 0 0 64-64v-179.2a64 64 0 0 0-64-64h-41.6v-111.04h310.4a48 48 0 0 0 47.552-41.6l0.448-6.4v-128h41.6a64 64 0 0 0 64-64v-179.2z m-812.8 32v115.2h-115.2v-115.2h115.2z m358.4 594.368v115.2h-115.2v-115.2h115.2z m0-594.304v115.2h-115.2v-115.2h115.2z m358.4 0v115.2h-115.2v-115.2h115.2z"  horiz-adv-x="1026" />
      
      <glyph glyph-name="zanting" unicode="&#59511;" d="M512 810.666667C276.266667 810.666667 85.333333 619.733333 85.333333 384s190.933333-426.666667 426.666667-426.666667 426.666667 190.933333 426.666667 426.666667S747.733333 810.666667 512 810.666667z m-42.666667-597.333334H384V554.666667h85.333333v-341.333334z m170.666667 0h-85.333333V554.666667h85.333333v-341.333334z"  horiz-adv-x="1024" />
      
      <glyph glyph-name="jiasu" unicode="&#59512;" d="M512 810.666667C276.352 810.666667 85.333333 619.648 85.333333 384s191.018667-426.666667 426.666667-426.666667 426.666667 191.018667 426.666667 426.666667S747.648 810.666667 512 810.666667z m-12.8-342.698667a23.210667 23.210667 0 0 0 19.584-1.834667l3.370667-2.389333a23.722667 23.722667 0 0 0 8.277333-17.962667v-48.128l117.845333 68.608 3.669334 1.664a22.912 22.912 0 0 0 19.2-1.877333 23.381333 23.381333 0 0 0 11.52-20.010667v-166.741333l-0.384-4.053333a23.338667 23.338667 0 0 0-11.093334-15.957334l-3.669333-1.706666a22.912 22.912 0 0 0-19.2 1.493333l-117.888 68.693333v-48.213333l-0.384-4.096a23.637333 23.637333 0 0 0-11.264-16.256 23.210667 23.210667 0 0 0-23.296-0.128L352.853333 342.442667l-3.370666 2.389333a23.466667 23.466667 0 0 0 3.370666 38.058667l142.592 83.370666z"  horiz-adv-x="1024" />
      
      <glyph glyph-name="jiansu" unicode="&#59513;" d="M512 810.666667c235.648 0 426.666667-191.018667 426.666667-426.666667s-191.018667-426.666667-426.666667-426.666667S85.333333 148.352 85.333333 384 276.352 810.666667 512 810.666667z m12.8-342.698667a23.210667 23.210667 0 0 1-19.584-1.834667l-3.370667-2.389333a23.722667 23.722667 0 0 1-8.277333-17.962667v-48.128l-117.845333 68.608-3.669334 1.664a22.912 22.912 0 0 1-19.2-1.877333 23.381333 23.381333 0 0 1-11.52-20.010667v-166.741333l0.384-4.053333a23.338667 23.338667 0 0 1 11.093334-15.957334l3.669333-1.706666a22.912 22.912 0 0 1 19.2 1.493333l117.888 68.693333v-48.213333l0.384-4.096a23.637333 23.637333 0 0 1 11.264-16.256c7.210667-4.224 16.085333-4.266667 23.296-0.128l142.592 83.370667 3.370667 2.389333a23.466667 23.466667 0 0 1-3.370667 38.058667l-142.592 83.370666z"  horiz-adv-x="1024" />
      
      <glyph glyph-name="zhongxinkaishi" unicode="&#59514;" d="M308.821333 759.125333A426.666667 426.666667 0 1 0 210.773333 81.877333 426.666667 426.666667 0 0 0 308.821333 759.082667z m146.176-210.218666c-18.048-10.24-28.928-29.056-28.288-49.194667v-188.8c-0.554667-20.266667 10.624-39.210667 29.013334-49.194667 7.125333-3.712 15.104-5.674667 23.210666-5.717333a52.906667 52.906667 0 0 1 27.904 8.149333l149.632 94.592c16.554667 10.453333 26.453333 28.288 26.197334 47.317334a53.632 53.632 0 0 1-25.344 46.037333l-150.997334 94.378667a51.072 51.072 0 0 1-51.328 2.432z"  horiz-adv-x="1024" />
      
      <glyph glyph-name="xinjianbukong_16" unicode="&#59510;" d="M173.76 831.936h456.96a45.184 45.184 0 0 0 24.832-5.696l5.888-3.712 4.8-4.224 216.896-216.384a44.8 44.8 0 0 0 9.792-15.424l1.984-6.4 1.088-7.808v-590.464a45.824 45.824 0 0 0-33.6-44.096l-6.208-1.28-5.952-0.448H173.76a45.76 45.76 0 0 0-44.032 33.6l-1.28 6.208L128-18.176V786.112a45.824 45.824 0 0 0 33.6 44.096l6.208 1.28L173.76 832zM595.84 745.472H209.408V26.24h600.32V533.12h-199.68l-3.392 0.384a14.208 14.208 0 0 0-10.624 11.52l-0.256 3.392V745.472zM513.856 573.12c20.608 0 38.4-13.76 44.096-33.92l1.216-5.696 0.448-6.208v-133.12h133.376c14.72-0.32 28.16-7.68 35.84-18.048l2.88-4.608 2.176-4.928a45.568 45.568 0 0 0 6.4-22.528c0-20.672-13.696-38.4-33.92-44.16l-5.632-1.216-6.208-0.448H557.184v-136.192a45.824 45.824 0 0 0-13.376-32.384l-4.48-3.968-5.056-3.328a45.76 45.76 0 0 0-66.944 27.712l-1.28 6.144-0.448 5.76V299.52H328.192a46.144 46.144 0 0 0-35.648 16.896l-3.072 4.48-2.368 4.928a45.568 45.568 0 0 0-6.464 22.528c0 20.672 13.76 38.4 33.92 44.16l5.696 1.216 6.144 0.448h141.632V527.36c0 21.44 14.72 39.424 34.56 44.416l5.504 1.088 5.76 0.32z m152 116.416V603.52h86.336l-86.4 86.016z"  horiz-adv-x="1024" />
      
      <glyph glyph-name="yidu2" unicode="&#59509;" d="M0 896l1024-1024H0zM425.710933 130.321067a193.877333 193.877333 0 0 0 9.375289-39.3216l0.864711-7.964445-20.48-4.278044 23.574756-23.552c3.072 2.048 6.075733 4.391822 9.0112 6.826666l4.3008 3.800178 35.726222 35.726222 17.749333-17.772088-35.726222-35.726223c-2.958222-2.707911-5.825422-5.142756-8.647111-7.509333l-4.278044-3.4816 44.805689-44.805689-16.9984-16.9984-48.469334 48.469333c-2.321067-1.137778-4.437333-2.116267-6.5536-3.094755 8.6016-23.825067 14.654578-47.650133 18.659556-71.497956l1.820444-11.901155-25.895822-5.415822a381.064533 381.064533 0 0 1-12.743111 72.544711l-2.889956 9.511822-7.918933-1.365333c-20.798578-2.139022-44.600889 3.709156-71.224889 17.385244l-6.212267 3.299556 5.415823 25.099377c28.580978-15.451022 51.746133-22.391467 69.518222-20.48a83.057778 83.057778 0 0 1 14.085689 3.572623l4.642133 1.661155-49.060978 49.038222 16.9984 16.9984 27.420445-27.420444a197.859556 197.859556 0 0 1-6.280534 37.728711l-2.025244 6.872178 21.435733 4.050489z m66.423467 70.291911l42.279822-42.302578 12.743111 12.743111 17.976889-17.954133-12.743111-12.743111 42.097778-42.097778-16.611556-16.611556-42.097777 42.097778-13.129956-13.129955 45.738667-45.738667-11.559823-11.605333c-12.515556-7.259022-25.531733-13.767111-39.139555-19.638045l-10.308267-4.3008-12.743111 22.778311c9.580089 2.798933 19.410489 6.5536 29.582222 11.423289l7.691378 3.845689-94.435555 94.435556 16.9984 16.975644 50.221511-50.198756 13.129955 13.129956-42.302578 42.279822 16.611556 16.611556z m-115.074844 22.391466l43.6224-43.645155-79.166578-79.166578c5.279289 0.136533 10.740622 0.273067 16.406755 0.455111l8.715378 0.318578-14.290489-24.325689a360.220444 360.220444 0 0 0-52.110222 2.116267l-10.080711 1.365333 9.466311 23.369956c4.824178-0.341333 9.102222 0.682667 12.652089 3.2768l2.048 1.729422 71.042844 71.0656-25.873066 25.873067 17.567289 17.567288z m84.3776-89.406577c4.004978-11.423289 6.917689-23.210667 8.6016-35.111823l1.046755-8.897422-21.822578-4.460089a163.2256 163.2256 0 0 1-6.144 37.751467l-2.161777 6.872178 20.48 3.868444zM241.891556 455.088356l146.158933-146.158934-81.078045-81.1008-119.716977 119.694222-53.111467-53.088711c-6.667378-6.667378-7.281778-13.334756-1.820444-20.002133l1.820444-2.002489 96.347022-96.347022a20.252444 20.252444 0 0 1 12.947911-5.984711c5.575111-0.182044 17.749333 8.214756 36.750223 24.871822l4.187022 3.709156 12.151466-23.7568c-26.624-22.004622-44.396089-33.223111-52.906666-33.5872-7.759644 0.318578-15.246222 3.322311-22.528 9.102222l-3.140267 2.6624-106.587022 106.587022c-15.496533 15.496533-16.019911 31.175111-1.706667 47.172267l2.6624 2.844444 100.420267 100.397511 18.523022-18.523022-26.441955-26.464711 100.989155-100.989156 45.966222 45.966223-127.453866 127.431111 17.567289 17.567289z m191.920355-201.955556l25.486222-0.386844c2.503111-18.705067 3.549867-35.999289 3.322311-51.973689l-0.227555-7.896178-25.281422-0.182045c1.365333 16.406756 0.386844 36.681956-3.299556 60.438756z"  horiz-adv-x="1024" />
      
      <glyph glyph-name="xiangsidu_24" unicode="&#59507;" d="M512 725.333333a341.376 341.376 0 0 0 0-682.666666 341.376 341.376 0 0 0 0 682.666666z m17.024-64.853333l5.418667-33.749333a14.506667 14.506667 0 0 0-10.581334-15.829334c-2.645333 0-5.248 0-7.893333 1.28l-85.205333 36.736a277.12 277.12 0 0 1-153.642667-411.861333l21.162667 24.277333c5.290667 5.248 13.226667 6.570667 18.474666 1.28 1.322667-1.28 2.645333-3.925333 3.968-6.570666l27.733334-95.658667A275.797333 275.797333 0 0 1 512 106.965333a276.650667 276.650667 0 0 1 226.304 117.205334l-32.426667 13.397333c-6.570667 2.645333-10.496 10.538667-7.893333 17.152 1.322667 2.645333 2.645333 3.968 3.968 5.290667l79.189333 58.112a276.992 276.992 0 0 1-252.16 342.357333z m-43.392-170.965333a79.36 79.36 0 0 0 79.146667-79.146667c0-22.4-10.581333-44.8-27.733334-59.306667 47.488-14.549333 80.469333-46.208 80.469334-83.157333 0-48.810667-59.306667-42.24-131.882667-42.24h-8.021333c-68.864-0.384-123.904-4.736-123.904 42.24 0 36.949333 32.981333 69.930667 80.469333 83.114667a77.226667 77.226667 0 0 0-27.733333 59.349333 79.36 79.36 0 0 0 79.189333 79.146667z m92.330667 52.778666c36.949333 0 65.962667-29.013333 65.962666-65.962666a65.28 65.28 0 0 0-31.658666-56.746667c48.810667-9.216 84.437333-40.874667 84.437333-76.458667 0-36.266667-34.474667-38.912-82.474667-38.613333-15.573333 19.584-40.618667 35.285333-71.082666 44.629333 18.858667 15.957333 30.464 40.661333 30.464 65.322667a87.466667 87.466667 0 0 1-58.410667 82.218667 64.938667 64.938667 0 0 0 62.72 45.653333z"  horiz-adv-x="1024" />
      
      <glyph glyph-name="sheweijizhun_24" unicode="&#59508;" d="M738.602667 503.978667c-29.994667 0-54.485333-24.576-54.485334-54.613334V513.066667c0 30.08-24.490667 54.613333-54.528 54.613333-29.994667 0-54.485333-24.533333-54.485333-54.613333v38.912c0 30.08-24.490667 54.613333-54.528 54.613333-30.037333 0-58.581333-19.498667-58.581333-49.578667V707.712C461.994667 737.792 441.6 768 411.605333 768c-30.037333 0-39.978667-30.208-39.978666-60.288v-391.808l-78.933334 71.594667a56.618667 56.618667 0 0 1-79.914666 0 56.832 56.832 0 0 1 0-80.085334l178.261333-178.645333a226.389333 226.389333 0 0 1 176.213333-84.138667c121.301333 0 220.416 95.232 226.048 214.784h0.298667v190.08a55.466667 55.466667 0 0 1-54.997333 54.485334z"  horiz-adv-x="1024" />
      
      <glyph glyph-name="jiedong" unicode="&#59505;" d="M810.666667 810.666667a213.333333 213.333333 0 0 0 213.12-204.074667L1024 597.333333v-128a42.666667 42.666667 0 0 0-85.034667-4.992L938.666667 469.333333V597.333333a128 128 0 0 1-255.786667 7.509334L682.666667 597.333333v-120.234666l105.045333-0.042667a29.013333 29.013333 0 0 0 28.586667-24.576l0.341333-4.352v-419.2a28.586667 28.586667 0 0 0-24.618667-28.586667l-4.309333-0.341333H242.261333a28.586667 28.586667 0 0 0-28.586666 24.576L213.333333 28.927999999999997v419.2a28.586667 28.586667 0 0 0 24.576 28.586667l4.352 0.341333L597.333333 477.098667V597.333333a213.333333 213.333333 0 0 0 213.333334 213.333334z m-288.426667-362.666667a21.333333 21.333333 0 0 1-21.034667-17.493333l-0.341333-3.84v-66.901334l-47.146667 47.104-2.944 2.474667a21.333333 21.333333 0 0 1-29.696-29.696l2.474667-2.986667 77.269333-77.226666v-43.392H456.106667l-76.586667 76.586666-2.944 2.474667a21.333333 21.333333 0 0 1-24.277333 0l-2.944-2.474667-2.474667-2.986666a21.333333 21.333333 0 0 1 0-24.234667l2.474667-2.944 46.378666-46.421333H330.24l-3.84-0.384a21.333333 21.333333 0 0 1 0-41.984l3.84-0.341334 65.578667 0.042667-46.464-46.506667-2.474667-2.986666a21.333333 21.333333 0 0 1 29.696-29.653334l2.986667 2.474667L456.106667 213.33333300000004h44.672v-43.434666l-77.226667-77.312-2.517333-2.986667a21.333333 21.333333 0 0 1 0-24.234667l2.474666-2.944 2.986667-2.474666a21.333333 21.333333 0 0 1 24.234667 0l2.986666 2.474666 47.061334 47.146667L500.906667 42.66666699999996l0.341333-3.84a21.333333 21.333333 0 0 1 41.984 0l0.341333 3.84v65.578666l45.781334-45.781333 2.986666-2.474667a21.333333 21.333333 0 0 1 29.653334 29.696l-2.474667 2.986667-75.946667 75.989333v44.714667h43.306667l76.714667-76.672 2.986666-2.474667a21.333333 21.333333 0 0 1 24.234667 0l2.986667 2.474667 2.432 2.986667a21.333333 21.333333 0 0 1 0 24.234666l-2.474667 2.944-46.506667 46.506667h66.986667l3.84 0.298667a21.333333 21.333333 0 0 1 0 41.984L714.24 256l-66.944 0.042667 46.506667 46.421333 2.432 2.986667a21.333333 21.333333 0 0 1-29.696 29.653333l-2.944-2.474667-76.629334-76.586666h-43.434666v44.672l75.989333 75.946666 2.474667 2.986667a21.333333 21.333333 0 0 1 0 24.277333l-2.474667 2.944-2.944 2.474667a21.333333 21.333333 0 0 1-24.277333 0l-2.944-2.474667-45.824-45.738666L543.573333 426.666667l-0.341333 3.84a21.333333 21.333333 0 0 1-20.992 17.493333z"  horiz-adv-x="1024" />
      
      <glyph glyph-name="dongjie2" unicode="&#59506;" d="M522.24 768a193.536 193.536 0 0 0 193.152-193.194667v-16.469333l-0.298667-81.237333 72.618667-0.042667a29.013333 29.013333 0 0 0 28.586667-24.576l0.341333-4.352v-419.2a28.586667 28.586667 0 0 0-24.618667-28.586667l-4.309333-0.341333H242.261333a28.586667 28.586667 0 0 0-28.586666 24.576L213.333333 28.927999999999997v419.2a28.586667 28.586667 0 0 0 24.576 28.586667l4.352 0.341333L328.533333 477.098667V576a192 192 0 0 0 182.954667 191.786667L522.24 768z m0-320a21.333333 21.333333 0 0 1-21.034667-17.493333l-0.341333-3.84v-66.901334l-47.146667 47.104-2.944 2.474667a21.333333 21.333333 0 0 1-29.696-29.696l2.474667-2.986667 77.269333-77.226666v-43.392H456.106667l-76.586667 76.586666-2.944 2.474667a21.333333 21.333333 0 0 1-24.277333 0l-2.944-2.474667-2.474667-2.986666a21.333333 21.333333 0 0 1 0-24.234667l2.474667-2.944 46.378666-46.421333H330.24l-3.84-0.384a21.333333 21.333333 0 0 1 0-41.984l3.84-0.341334 65.578667 0.042667-46.464-46.506667-2.474667-2.986666a21.333333 21.333333 0 0 1 29.696-29.653334l2.986667 2.474667L456.106667 213.33333300000004h44.672v-43.434666l-77.226667-77.312-2.517333-2.986667a21.333333 21.333333 0 0 1 0-24.234667l2.474666-2.944 2.986667-2.474666a21.333333 21.333333 0 0 1 24.234667 0l2.986666 2.474666 47.061334 47.146667L500.906667 42.66666699999996l0.341333-3.84a21.333333 21.333333 0 0 1 41.984 0l0.341333 3.84v65.578666l45.781334-45.781333 2.986666-2.474667a21.333333 21.333333 0 0 1 29.653334 29.696l-2.474667 2.986667-75.946667 75.989333v44.714667h43.306667l76.714667-76.672 2.986666-2.474667a21.333333 21.333333 0 0 1 24.234667 0l2.986667 2.474667 2.432 2.986667a21.333333 21.333333 0 0 1 0 24.234666l-2.474667 2.944-46.506667 46.506667h66.986667l3.84 0.298667a21.333333 21.333333 0 0 1 0 41.984L714.24 256l-66.944 0.042667 46.506667 46.421333 2.432 2.986667a21.333333 21.333333 0 0 1-29.696 29.653333l-2.944-2.474667-76.629334-76.586666h-43.434666v44.672l75.989333 75.946666 2.474667 2.986667a21.333333 21.333333 0 0 1 0 24.277333l-2.474667 2.944-2.944 2.474667a21.333333 21.333333 0 0 1-24.277333 0l-2.944-2.474667-45.824-45.738666L543.573333 426.666667l-0.341333 3.84a21.333333 21.333333 0 0 1-20.992 17.493333z m-1.706667 240.64a112.682667 112.682667 0 0 1-109.866666-87.594667 114.389333 114.389333 0 0 1-1.706667-20.010666l-0.042667-103.936h224.256V576a112.64 112.64 0 0 1-112.64 112.64z"  horiz-adv-x="1024" />
      
      <glyph glyph-name="tianjiarenyuan_24" unicode="&#59504;" d="M347.818667 572.586667c5.632 83.626667 74.496 151.808 158.122666 156.714666a169.045333 169.045333 0 0 0 179.2-168.618666 168.661333 168.661333 0 0 0-168.661333-168.661334 169.386667 169.386667 0 0 0-168.661333 180.608z m224.170666-404.693334a168.106667 168.106667 0 0 0 88.533334 148.266667c-52.693333 13.354667-105.386667 20.352-144.768 20.352-111.701333 0-336.554667-56.192-336.554667-168.618667v-84.309333a28.16 28.16 0 0 1 28.117333-28.117333h407.509334a166.613333 166.613333 0 0 0-42.837334 112.426666z m281.770667 28.117334h-84.352V280.32h-56.192v-84.309333H628.906667v-56.234667h84.309333V55.466667h56.192v84.309333h84.352v56.234667z"  horiz-adv-x="1024" />
      
      <glyph glyph-name="kaiqigongxiang_24" unicode="&#59502;" d="M846.506667 697.856a134.613333 134.613333 0 0 0-212.992-160.042667l-196.522667-107.221333c3.882667-18.474667 3.882667-37.546667 0-56.064l90.496-49.365333a184.618667 184.618667 0 1 0-30.336-71.082667l-97.024 52.906667a134.613333 134.613333 0 1 0 0 191.146666l196.522667 107.178667a134.613333 134.613333 0 0 0 249.856 92.586667z m-87.466667-400.768a20.778667 20.778667 0 0 1-29.44 0l-48.938667-48.938667-48.938666 48.938667-3.242667 2.645333a20.778667 20.778667 0 0 1-26.112-2.645333l-2.688-3.285333a20.778667 20.778667 0 0 1 2.688-26.112l48.896-48.938667-48.896-48.938667a20.778667 20.778667 0 1 1 29.354667-29.397333l48.938666 48.938667 48.981334-48.938667 3.242666-2.645333a20.778667 20.778667 0 0 1 26.112 2.645333l2.688 3.285333a20.778667 20.778667 0 0 1-2.688 26.112l-48.938666 48.938667 48.938666 48.938667a20.778667 20.778667 0 0 1 0 29.397333z"  horiz-adv-x="1024" />
      
      <glyph glyph-name="quxiaogongxiang_24" unicode="&#59503;" d="M837.973333 680.789333a134.613333 134.613333 0 0 0-212.992-160.042666l-196.522666-107.221334c3.882667-18.474667 3.882667-37.546667 0-56.064l90.496-49.365333a184.618667 184.618667 0 1 0-30.336-71.082667l-97.024 52.906667a134.613333 134.613333 0 1 0 0 191.146667l196.522666 107.178666a134.613333 134.613333 0 0 0 249.856 92.586667z m-56.490666-402.090666a20.778667 20.778667 0 0 1-29.354667 0l-108.032-107.946667-54.186667 54.144-3.242666 2.645333a20.778667 20.778667 0 0 1-26.112-32l68.522666-68.565333 2.986667-2.474667a20.736 20.736 0 0 1 24.448 0.810667 20.821333 20.821333 0 0 1 4.224 3.242667l120.746667 120.746666a20.778667 20.778667 0 0 1 0 29.397334z"  horiz-adv-x="1024" />
      
      <glyph glyph-name="jiliantongzhi" unicode="&#59468;" d="M617.408-27.776a50.112 50.112 0 1 0 0-100.224H394.432a50.112 50.112 0 1 0 0 100.224h222.976zM504.448 896a362.88 362.88 0 0 0 256.128-106.496 361.472 361.472 0 0 0 106.496-256.128l-0.064-412.928h94.592a50.112 50.112 0 0 0 0.128-100.288H50.112a50.112 50.112 0 1 0 0 100.224l91.648 0.064V533.376A362.88 362.88 0 0 0 248.32 789.504 361.472 361.472 0 0 0 504.448 896zM504.32 795.648A262.528 262.528 0 0 1 241.92 533.376v-412.928h524.544l0.064 412.928A262.528 262.528 0 0 1 504.32 795.648z"  horiz-adv-x="1024" />
      
      <glyph glyph-name="mimaxiugai" unicode="&#59469;" d="M902.208-127.744H155.712c-38.4-4.288-72.512 46.912-72.512 72.512V426.752c0 51.2 55.424 85.312 85.312 85.312H211.2v128C211.2 785.088 364.736 896 509.76 896s298.624-110.912 298.624-255.936v-128h42.624c34.112 0 85.312-29.824 85.312-85.312v-481.984c-4.288-25.6 4.288-72.512-34.112-72.512zM718.72 640c0 98.112-115.2 170.624-213.312 170.624-98.112 0-213.248-72.512-213.248-170.624v-128h426.56v128z m128-213.312H164.16v-469.184H846.72l12.8-12.8-12.8 481.984zM548.096 183.68v-98.112c0-25.6-17.088-42.624-42.688-42.624a42.752 42.752 0 0 0-42.624 42.624V183.68c-25.6 12.8-42.688 42.688-42.688 72.512 0 46.976 38.4 85.312 85.312 85.312 46.976 0 85.312-38.4 85.312-85.312 0-29.824-17.024-59.712-42.624-72.512z"  horiz-adv-x="1024" />
      
      <glyph glyph-name="tuichudenglu" unicode="&#59470;" d="M326.592 852.928a497.408 497.408 0 0 0 550.912-146.24 45.952 45.952 0 0 0-64.96-64.64l-5.248 5.312a405.504 405.504 0 1 1-14.592-539.584l14.592 16.32a45.952 45.952 0 0 0 70.208-59.264A497.408 497.408 0 1 0 326.592 852.928z m500.672-336.896c0 11.712 11.968 18.816 21.888 14.528l3.584-2.176 165.248-130.432a15.68 15.68 0 0 0 2.944-21.696l-2.944-2.944-165.184-130.432a15.68 15.68 0 0 0-24.96 8.128l-0.576 4.16V337.28H467.84a15.68 15.68 0 0 0-13.76 8.128l-1.472 3.904-0.448 3.584v65.28c0 7.36 5.12 13.568 12.096 15.232l3.584 0.384 359.36 0.064V516.032z"  horiz-adv-x="1024" />
      
      <glyph glyph-name="yuyanqiehuan" unicode="&#59471;" d="M512 896a512 512 0 1 0 0-1024A512 512 0 0 0 512 896z m169.728-554.688H342.272c9.408-217.792 89.792-384 169.728-384s160.32 166.208 169.728 384z m-424.896 0H87.424a427.072 427.072 0 0 1 256.896-349.76c-50.304 85.76-82.112 210.368-87.488 349.76z m679.68 0h-169.344c-5.376-139.456-37.184-264-87.488-349.76a426.944 426.944 0 0 1 256.896 349.76zM344.32 776.448l-4.736-2.048a426.88 426.88 0 0 1-252.16-347.712h169.408c5.44 139.392 37.184 264 87.488 349.76zM512 810.688l-3.2-0.128c-78.848-4.352-157.248-169.024-166.528-383.872h339.456c-9.408 217.728-89.792 384-169.728 384z m167.68-34.24l3.2-5.44c48.448-85.504 78.976-207.808 84.288-344.32h169.344a427.008 427.008 0 0 1-256.832 349.76z"  horiz-adv-x="1024" />
      
      <glyph glyph-name="shipinshangchuanxiazai" unicode="&#59472;" d="M824.512 844.8c87.68 0 154.688-67.008 154.688-154.688v-618.624c0-87.68-67.008-154.688-154.688-154.688H205.888C118.208-83.2 51.2-16.192 51.2 71.488V690.112C51.2 777.792 118.208 844.8 205.888 844.8h618.624z m0-103.104H205.888c-30.976 0-51.584-20.608-51.584-51.584v-618.624c0-30.976 20.608-51.584 51.584-51.584h618.624c30.976 0 51.584 20.608 51.584 51.584V690.112c0 30.976-20.608 51.584-51.584 51.584z m-103.04-412.48c20.544 0 41.216-15.424 41.216-41.216 0-20.608-15.488-36.096-30.976-36.096H401.792l61.824-61.888a39.68 39.68 0 0 0 5.184-51.52l-5.12-5.12a39.68 39.68 0 0 0-51.584-5.184v5.12L283.2 262.208c-25.792 25.792-10.304 61.888 20.608 67.008h417.6zM613.12 633.408l134.016-134.016c20.608-20.608 10.304-61.888-20.608-67.008H308.992a40.64 40.64 0 0 0-41.28 41.216c0 20.608 15.488 36.096 30.976 36.096h324.8l-56.704 61.888a39.68 39.68 0 0 0-5.184 51.52l5.12 5.12c10.368 10.368 36.096 15.488 46.464 5.184z"  horiz-adv-x="1024" />
      
      <glyph glyph-name="huanfu" unicode="&#59490;" d="M334.272 854.72L344.96 851.84l10.56-4.224c27.52-12.288 49.664-33.856 62.208-60.48 15.296-27.712 42.688-46.336 73.152-50.56l9.216-0.896h28.992c32.96 1.92 62.528 20.992 77.632 49.92A125.44 125.44 0 0 0 680.896 850.816c27.712 9.6 57.792 8.768 84.864-2.048l9.92-4.48 180.864-92.736a122.88 122.88 0 0 0 67.136-100.288l0.32-9.92v-128.384c0-68.16-55.04-123.52-123.264-123.776a32.576 32.576 0 0 1-22.336-8.96 29.952 29.952 0 0 1-8.384-17.28l-0.256-5.056 2.752-316.48a122.88 122.88 0 0 0-112.896-124.416l-10.944-0.384-36.864 0.256 1.344 1.088H275.264c-25.728 0-50.624 8-71.424 22.656l-8.64 6.656-8.064 7.488a126.016 126.016 0 0 0-35.2 77.44l-0.448 10.944 3.2 316.416a32.512 32.512 0 0 1-8.832 22.272 32.64 32.64 0 0 1-22.144 9.152A123.776 123.776 0 0 0 0.384 504.64L0 513.856V642.24c0 43.328 22.656 83.2 59.264 105.408l8.704 4.864L248.512 842.752a124.672 124.672 0 0 0 85.76 11.968z m383.552-92.8l-6.016-1.28-4.48-2.048a32.768 32.768 0 0 1-11.584-10.688l-2.624-4.736c-19.2-40.32-49.472-67.968-87.36-84.8-31.36-13.888-63.552-19.008-92.224-18.816l-15.36 0.64H490.24A184.384 184.384 0 0 0 341.696 731.52l-5.888 10.88a32.64 32.64 0 0 1-19.008 17.28 32.768 32.768 0 0 1-17.856 0.448l-5.632-2.048-184.384-88.32a32.832 32.832 0 0 1-16.384-21.888l-0.64-5.568v-128.448c0-18.112 14.72-32.768 32.768-32.768A123.712 123.712 0 0 0 248 367.36l0.384-10.944-3.2-316.48c0-16.064 11.648-29.44 26.88-32.192l5.888-0.512h233.216l-2.688 3.584h242.048a32.64 32.64 0 0 1 22.4 9.024 29.056 29.056 0 0 1 8.32 16.896l0.256 4.928-2.752 316.416a120.96 120.96 0 0 0 35.712 88.128c23.168 23.68 54.976 36.928 87.424 36.736a32.768 32.768 0 0 1 30.592 27.072l0.512 5.696V641.024a32.832 32.832 0 0 1-11.968 24.512l-4.672 3.136-180.608 90.304a32.768 32.768 0 0 1-17.92 2.944z"  horiz-adv-x="1024" />
      
      <glyph glyph-name="lianxiwomen" unicode="&#59501;" d="M200.127625 896c31.103942 0 60.415887-13.695974 80.511849-37.24793l6.335988-8.191985 126.591763-181.759659a108.415797 108.415797 0 0 0-25.855952-149.50372l-8.319984-5.37599-53.247901-31.167941a30.079944 30.079944 0 0 1-12.607976-39.423926 941.886234 941.886234 0 0 1 258.559515-254.399523 29.439945 29.439945 0 0 1 37.119931 8.383984l2.879994 4.607991 29.311945 54.591898c14.271973 26.75195 39.103927 46.079914 68.287872 53.2479 25.983951 6.399988 53.2479 2.687995 76.415857-10.239981l8.447984-5.24799 182.399658-124.287767c28.607946-19.391964 46.079914-51.583903 46.975912-86.399838 0.831998-31.231941-11.839978-61.183885-34.431935-82.047846l-7.871986-6.655987-73.087863-55.999895A322.111396 322.111396 0 0 0 712.062665-127.99808a268.991496 268.991496 0 0 0-116.159782 25.855952A1215.99772 1215.99772 0 0 0 23.935955 463.93681a327.679386 327.679386 0 0 0 27.519949 299.135439l8.895983 13.183976 53.5039 75.327858A105.983801 105.983801 0 0 0 190.079644 895.552001L200.127625 896z m-7.295987-75.007859l-2.623995-0.256a22.719957 22.719957 0 0 1-11.455978-5.759989l-2.815995-3.199994-54.591898-79.167852a245.951539 245.951539 0 0 1-27.647948-233.919561 1166.205813 1166.205813 0 0 1 539.262989-531.455004 225.279578 225.279578 0 0 1 215.935595 25.407953l86.143839 65.919876a23.615956 23.615956 0 0 1 3.455993 35.199934l-3.199994 2.815995-185.727651 126.527763a23.039957 23.039957 0 0 1-30.975942-4.095993l-2.751995-4.095992-29.823944-55.551896a115.007784 115.007784 0 0 0-155.455709-47.99991 1032.894063 1032.894063 0 0 0-294.399448 290.879455 117.631779 117.631779 0 0 0 36.031933 151.167716l8.319984 5.31199 53.951899 31.103942a23.487956 23.487956 0 0 1 9.791982 29.823944l-2.431996 4.351992-128.319759 185.343652a22.783957 22.783957 0 0 1-14.335973 9.407983l-4.479992 0.447999-1.855997 1.791997z"  horiz-adv-x="1024" />
      
      <glyph glyph-name="vmubiaojiansuo_24" unicode="&#59467;" d="M881.066667 82.816l-113.152 113.194667A331.392 331.392 0 1 1 170.666667 393.941333a331.349333 331.349333 0 0 1 331.434666-331.434666 329.642667 329.642667 0 0 1 204.074667 70.314666l112.512-112.469333a44.202667 44.202667 0 1 1 62.378667 62.464z m-232.490667 149.845333a20.736 20.736 0 0 0-13.568-4.821333H358.997333a17.92 17.92 0 0 0-9.173333 2.730667c-4.821333 2.773333-11.306667 7.594667-11.306667 12.416a160.469333 160.469333 0 0 0 100.821334 146.346666 102.954667 102.954667 0 0 0-43.434667 89.898667 101.674667 101.674667 0 0 0 96.512 94.848 100.437333 100.437333 0 0 0 74.325333-27.733333c19.925333-19.114667 31.104-45.525333 30.848-73.088a98.730667 98.730667 0 0 0-43.434666-82.346667 155.392 155.392 0 0 0 101.930666-145.834667 19.114667 19.114667 0 0 0-7.509333-12.373333z"  horiz-adv-x="1024" />
      
      <glyph glyph-name="jingzongbianhao_16" unicode="&#59465;" d="M512-64A448 448 0 1 0 512 832a448 448 0 0 0 0-896z m-19.392 502.08V570.688a37.312 37.312 0 0 1-74.688 0v-213.632L257.408 584.832a44.8 44.8 0 0 1-81.408-25.856v-305.28a37.312 37.312 0 0 1 74.688 0V464.832l160.512-227.712a44.8 44.8 0 0 1 81.408 25.792v33.088a149.312 149.312 0 1 1 0 142.144zM624 292.352a74.688 74.688 0 1 0-3.136 149.312 74.688 74.688 0 0 0 3.2-149.312z m186.688-57.664a37.312 37.312 0 1 1 2.176 74.624 37.312 37.312 0 0 1-2.176-74.624z"  horiz-adv-x="1024" />
      
      <glyph glyph-name="anjianmingcheng_16" unicode="&#59466;" d="M863.104 793.6c32.32 0 58.496-26.24 58.496-58.496v-495.936c0-32.32-26.24-58.496-58.496-58.496H229.696c-73.152 0-73.152-73.152-73.152-73.152 0-40.384 32.704-73.152 73.152-73.152h604.16a29.248 29.248 0 0 0 29.248-30.72 29.248 29.248 0 0 0-29.248-29.248h-614.4A117.056 117.056 0 0 0 102.4 91.456V676.48c0 64.64 52.416 117.056 117.056 117.056zM716.8 325.504H307.2a29.248 29.248 0 0 1 0-58.56h409.6a29.248 29.248 0 0 1 0 58.56zM512 726.336l-54.144-109.76-121.408-17.536L424.32 512.704l-20.48-119.936L512 449.92l108.224-57.088-20.48 119.936 87.808 86.336-121.408 17.536L512 726.4z"  horiz-adv-x="1024" />
      
      <glyph glyph-name="tuozhuaishangchuan2" unicode="&#59463;" d="M972.80064 640c28.266667 0 51.2-23.125333 51.2-51.669333v-557.994667A51.434667 51.434667 0 0 0 972.80064-21.333333H51.20064A51.434667 51.434667 0 0 0 0.00064 30.336V640h972.8zM570.667307 114.666667h-117.333334V85.333333h117.333334v29.333334z m0 58.666666h-117.333334v-29.333333h117.333334v29.333333z m0 146.666667h-117.333334v-117.333333h117.333334V320z m-58.624 234.666667a17.024 17.024 0 0 1-14.144-7.530667c-7.189333-10.965333-122.453333-191.786667-130.474667-204.970667-2.858667-4.736-2.773333-10.666667 0.170667-15.317333a14.72 14.72 0 0 1 13.802666-6.762667h260.906667a14.784 14.784 0 1 1 14.08 22.677334l-130.218667 204.373333a17.024 17.024 0 0 1-14.122666 7.530667zM51.627307 789.333333h402.56c17.109333 0 42.773333-9.706667 51.626666-32L640.00064 618.666667H0.00064V736C0.00064 765.44 23.10464 789.333333 51.627307 789.333333z"  horiz-adv-x="1024" />
      
      <glyph glyph-name="tuozhuaishangchuan1" unicode="&#59464;" d="M0.00064 736C0.00064 765.44 23.10464 789.333333 51.627307 789.333333h402.56c17.109333 0 42.773333-9.706667 51.626666-32l113.536-117.333333H972.80064c28.266667 0 51.2-23.125333 51.2-51.669333v-557.994667A51.434667 51.434667 0 0 0 972.80064-21.333333H51.20064A51.434667 51.434667 0 0 0 0.00064 30.336V736zM570.667307 320v-117.333333h-117.333334V320h117.333334z m-58.624 234.666667c5.674667 0 10.965333-2.816 14.122666-7.530667l130.197334-204.373333c3.050667-4.8 3.072-10.901333 0.085333-15.744a14.890667 14.890667 0 0 0-14.165333-6.933334H381.397973a14.72 14.72 0 0 0-13.802666 6.762667 14.592 14.592 0 0 0-0.170667 15.317333c8 13.162667 123.285333 194.005333 130.474667 204.970667a17.024 17.024 0 0 0 14.144 7.530667zM453.333973 173.333333h117.333334v-29.333333h-117.333334v29.333333z m0-58.666666h117.333334V85.333333h-117.333334v29.333334z"  horiz-adv-x="1024" />
      
      <glyph glyph-name="shishizhuapaigengduocaozuo" unicode="&#59462;" d="M192 704a64 64 0 1 0 0-128 64 64 0 0 0 0 128z m0-256a64 64 0 1 0 0-128 64 64 0 0 0 0 128z m0-256a64 64 0 1 0 0-128 64 64 0 0 0 0 128z m192 512h512a64 64 0 0 0 0-128H384a64 64 0 1 0 0 128z m0-256h512a64 64 0 0 0 0-128H384a64 64 0 1 0 0 128z m0-256h512a64 64 0 0 0 0-128H384a64 64 0 0 0 0 128z"  horiz-adv-x="1433" />
      
      <glyph glyph-name="qidong_24" unicode="&#59491;" d="M512 704A318.677333 318.677333 0 0 1 192 384c0-177.792 142.208-320 320-320s320 142.208 320 320-142.208 320-320 320z m128-344.874667l-152.874667-113.792c-21.333333-10.666667-46.250667 3.541333-46.250666 24.874667v224c0 21.333333 24.917333 35.584 46.250666 24.917333L640 408.874667c21.333333-10.666667 21.333333-39.082667 0-49.749334z"  horiz-adv-x="1024" />
      
      <glyph glyph-name="zanting_24" unicode="&#59492;" d="M512 704a320 320 0 1 1 0-640 320 320 0 0 1 0 640zM423.68 269.73866699999996h-6.144a42.666667 42.666667 0 0 0-42.666667 42.666666v143.189334a42.666667 42.666667 0 0 0 42.666667 42.666666h6.101333a42.666667 42.666667 0 0 0 42.666667-42.666666v-143.189334a42.666667 42.666667 0 0 0-42.666667-42.666666z m182.784 0h-6.101333a42.666667 42.666667 0 0 0-42.666667 42.666666v143.189334a42.666667 42.666667 0 0 0 42.666667 42.666666h6.101333a42.666667 42.666667 0 0 0 42.666667-42.666666v-143.189334a42.666667 42.666667 0 0 0-42.666667-42.666666z"  horiz-adv-x="1024" />
      
      <glyph glyph-name="jieshu_24" unicode="&#59493;" d="M780.544 669.184a26.026667 26.026667 0 0 0 25.685333-26.112v-531.2c0-23.381333-13.44-26.538667-24.917333-26.538667H250.112a26.069333 26.069333 0 0 0-26.112 26.112V642.6453329999999c0 14.634667 11.861333 26.112 26.112 26.112h96.512v-53.376c0-12.288 10.282667-22.570667 22.528-22.570666h292.309333a22.528 22.528 0 0 1 22.570667 22.570666v53.76z m-104.448-195.413333a24.576 24.576 0 0 1-35.2 0l-169.685333-169.685334-83.072 82.261334a24.576 24.576 0 0 1-35.2 0 24.576 24.576 0 0 1 0-35.2l100.48-100.48a24.576 24.576 0 0 1 35.2 0l187.904 187.477333a24.234667 24.234667 0 0 1-0.426667 35.626667zM632.192 725.333333c8.704 0 16.213333-7.509333 16.213333-16.213333v-66.474667c0-8.704-7.509333-16.213333-16.213333-16.213333H398.421333v-0.768a16.554667 16.554667 0 0 0-16.213333 16.213333V709.12c0 8.704 7.509333 16.213333 16.213333 16.213333h233.813334z"  horiz-adv-x="1024" />
      
      <glyph glyph-name="huifang_24" unicode="&#59494;" d="M540.48 875.52c265.344 0 480.384-219.904 480.384-491.136 0-271.36-215.04-491.264-480.384-491.264-177.792 0-332.992 98.688-416 245.44l-0.448 0.768-0.896 1.728-0.832 1.792 94.144 95.68c0.512-1.28 0.896-2.56 1.408-3.712 54.912-124.864 177.664-211.84 320.32-211.84 193.92 0 351.04 160.768 351.04 359.04 0 198.208-157.184 358.912-351.04 358.912-148.48 0-275.328-94.144-326.656-227.2a227.904 227.904 0 0 1-2.496-6.592H295.68L147.84 356.032 0 507.072h75.52l1.152 5.952C131.968 721.856 318.72 875.52 540.48 875.52zM436.672 551.04l262.784-151.808a25.216 25.216 0 0 0 0-43.712l-262.784-151.808a25.344 25.344 0 0 0-38.016 21.888V529.088c0 19.456 21.12 31.744 38.016 21.952z"  horiz-adv-x="1027" />
      
      <glyph glyph-name="zhongzhimima_24" unicode="&#59495;" d="M512 810.666667c235.648 0 426.666667-191.018667 426.666667-426.666667s-191.018667-426.666667-426.666667-426.666667a425.386667 425.386667 0 0 0-301.696 124.970667 42.666667 42.666667 0 0 0 60.330667 60.330667A341.333333 341.333333 0 1 1 171.306667 405.333333h67.541333L128 276.48 17.152 405.333333l68.693333 0.042667C96.981333 631.082667 283.52 810.666667 512 810.666667z m0-191.018667a128 128 0 0 0 127.786667-120.490667l0.213333-7.509333V426.666667h26.282667a16.64 16.64 0 0 0 16.042666-13.568L682.666667 409.6v-221.952c0-8.32-5.546667-15.104-13.013334-16.682667l-3.370666-0.341333H357.717333a16.341333 16.341333 0 0 0-16.042666 13.568L341.333333 187.73333300000002v221.952c0 8.32 5.546667 15.104 13.013334 16.682667L357.717333 426.666667H384V491.648a128 128 0 0 0 128 128z m0.170667-260.48c-19.626667 0-35.370667-16.341333-35.370667-36.821333 0-8.533333 2.730667-16.341333 7.253333-22.442667l2.901334-3.413333v-32.085334c0-14.293333 11.136-25.898667 24.874666-25.898666 12.373333 0 22.613333 9.386667 24.533334 21.717333l0.341333 4.181333v32.042667a37.888 37.888 0 0 1 10.794667 25.898667c0 20.48-15.701333 36.821333-35.328 36.821333zM512 534.314667a42.666667 42.666667 0 0 1-42.368-37.717334L469.333333 491.648V426.666667h85.333334V491.648a42.666667 42.666667 0 0 1-42.666667 42.666667z"  horiz-adv-x="1024" />
      
      <glyph glyph-name="queding_24" unicode="&#59496;" d="M512 864A479.872 479.872 0 0 1 32 384c0-265.216 214.784-480 480-480s480 214.784 480 480S777.088 864 512 864zM448 162.112a19.392 19.392 0 0 0-27.392 0l-16.512 16.512-39.68 39.68-149.056 149.184a19.392 19.392 0 0 0 0 27.328l56.128 56.128a19.392 19.392 0 0 0 27.328 0L420.8 328.96a19.2 19.2 0 0 1 27.136 0l277.056 276.992a19.392 19.392 0 0 0 27.328 0l56-55.936a19.456 19.456 0 0 0 0-27.52L448 162.112z"  horiz-adv-x="1024" />
      
      <glyph glyph-name="jiexishezhi_24" unicode="&#59497;" d="M694.976 117.504c44.48 25.728 103.808 11.52 151.552-30.72 20.608-18.24 52.352-16.896 69.312 4.992a499.648 499.648 0 0 1 73.6 133.248c9.152 24.896-4.48 51.776-29.312 61.056-56.768 21.312-95.552 64.128-95.552 113.6 0 48.96 37.952 91.392 93.76 112.896 24.96 9.6 38.4 36.736 28.8 61.632a498.112 498.112 0 0 1-82.816 141.568 47.744 47.744 0 0 1-65.408 7.296c-45.184-34.048-98.24-43.776-138.752-20.352-40.96 23.68-58.944 75.136-51.712 131.968A47.744 47.744 0 0 1 609.92 887.936 496.896 496.896 0 0 1 440.192 889.6a47.232 47.232 0 0 1-39.744-49.728c3.84-52.48-14.336-98.944-52.736-121.088-39.616-22.912-91.072-14.08-135.68 17.92a47.808 47.808 0 0 1-63.616-7.04A497.28 497.28 0 0 1 53.12 572.416a47.936 47.936 0 0 1 26.88-61.12c54.016-21.888 90.368-63.488 90.368-111.424 0-48.128-36.8-90.048-91.136-111.744a48.192 48.192 0 0 1-28.352-60.864 497.024 497.024 0 0 1 85.12-148.8c17.152-20.608 47.872-22.208 68.48-4.736 47.232 40.256 105.024 53.312 148.608 28.096 43.52-25.088 61.12-81.536 50.112-142.336a47.488 47.488 0 0 1 38.656-55.616 503.744 503.744 0 0 1 167.872 1.792c27.072 4.864 43.584 32 37.248 58.688-15.04 64.832 1.92 126.592 48 153.216z m-60.16 154.112c-172.224-123.2-362.24 66.88-239.168 239.104a49.28 49.28 0 0 0 10.88 10.88c172.224 123.136 362.368-66.944 239.232-239.104a45.696 45.696 0 0 0-11.008-10.88z"  horiz-adv-x="1024" />
      
      <glyph glyph-name="dongjie_24" unicode="&#59498;" d="M512 853.333333l-6.599111-0.398222-6.826667-1.251555a54.613333 54.613333 0 0 1-41.130666-52.906667v-119.068445L376.888889 760.206222a54.727111 54.727111 0 0 1-76.401778-0.739555l-4.608-5.347556-3.982222-6.030222a54.556444 54.556444 0 0 1 7.281778-64.398222l158.264889-158.264889v-86.869334H370.574222l-157.639111 157.582223a54.727111 54.727111 0 0 1-76.401778-0.625778l-4.664889-5.347556-3.982222-6.087111a54.556444 54.556444 0 0 1 7.281778-64.284444l81.180444-81.237334H97.223111c-30.151111 0-54.556444-24.462222-54.556444-54.556444l0.398222-6.599111 1.194667-6.257778a54.613333 54.613333 0 0 1 52.906666-41.642667l119.125334 0.056889-80.497778-80.668444a54.499556 54.499556 0 0 1 24.348444-92.16l6.542222-1.137778 6.656-0.398222a54.442667 54.442667 0 0 1 40.220445 17.294222l157.013333 157.070222h86.869334v-86.869333l-157.582223-157.752889a54.556444 54.556444 0 0 1 24.348445-92.16l6.428444-1.137778 6.712889-0.455111a54.442667 54.442667 0 0 1 40.220445 17.294222l79.872 79.928889v-119.182222c0-30.151111 24.462222-54.556444 54.556444-54.556444l6.599111 0.398222 6.257778 1.194667a54.613333 54.613333 0 0 1 41.699555 52.906666l-0.113777 119.239111 80.668444-80.611555a54.727111 54.727111 0 0 1 76.344889 0.739555l4.664889 5.290667 3.982222 6.087111a54.556444 54.556444 0 0 1-7.281778 64.341333l-158.378666 158.435556V329.557333h86.869333l157.752889-157.752889a54.727111 54.727111 0 0 1 76.401778 0.739556l4.608 5.290667 3.982222 6.087111a54.556444 54.556444 0 0 1-7.281778 64.341333l-81.180444 81.294222 119.182222-0.113777c30.151111 0 54.556444 24.462222 54.556444 54.556444l-0.398222 6.599111-1.194667 6.257778a54.613333 54.613333 0 0 1-52.906666 41.699555h-119.239111l80.554666 80.497778a54.727111 54.727111 0 0 1-0.682666 76.401778l-5.290667 4.664889-6.087111 3.982222a54.556444 54.556444 0 0 1-64.341333-7.281778l-158.435556-158.264889H566.442667V525.425778l157.752889 157.639111a54.727111 54.727111 0 0 1-0.739556 76.401778l-5.290667 4.608-6.087111 3.982222a54.556444 54.556444 0 0 1-64.341333-7.224889L566.442667 679.708444l0.113777 119.068445c0 30.151111-24.462222 54.556444-54.556444 54.556444z"  horiz-adv-x="1024" />
      
      <glyph glyph-name="bukongrenwu_16" unicode="&#59480;" d="M787.712 152.768V384a275.712 275.712 0 1 1-551.424 0v-231.232c0-15.104 1.28-30.016 3.584-44.48h544.256c2.368 14.464 3.584 29.376 3.584 44.48z m-689.28-78.912h827.136V-64H98.432v137.856zM477.568 832h68.864v-103.36H477.568V832z m375.616-155.648l-73.088-73.088-48.768 48.768L804.48 725.12l48.768-48.832zM960 418.432v-68.864h-103.36V418.432H960zM64 349.568V418.432h103.36v-68.864H64zM219.648 725.12l73.088-73.088-48.768-48.768L170.88 676.48l48.832 48.768z"  horiz-adv-x="1024" />
      
      <glyph glyph-name="xingxing_huise_16" unicode="&#59481;" d="M512 832l144.192-285.312L960 506.496 724.544 269.44l64.384-289.536-276.864 159.36-276.928-159.36L299.52 269.376 64 506.496l303.936 40.192L512 832z"  horiz-adv-x="1024" />
      
      <glyph glyph-name="xingxing_huangse_16" unicode="&#59482;" d="M512 832l144.192-285.312L960 506.496 724.544 269.44l64.384-289.536-276.864 159.36-276.928-159.36L299.52 269.376 64 506.496l303.936 40.192L512 832z"  horiz-adv-x="1024" />
      
      <glyph glyph-name="chuanbingshijian_16" unicode="&#59483;" d="M590.848 768a320.96 320.96 0 0 1-286.528-176.256 321.152 321.152 0 0 1 144.704-607.68c125.248 0 233.6 71.68 286.592 176.256A321.088 321.088 0 0 1 590.848 768z m45.504-650.24a263.104 263.104 0 0 0-187.456-77.632 264.64 264.64 0 0 0-187.456 77.632c-24.256 24.32-43.392 52.608-56.704 84.224a263.104 263.104 0 0 0-20.8 103.168 264.64 264.64 0 0 0 91.2 200 321.024 321.024 0 0 1 373.888-373.952 260.928 260.928 0 0 0-12.672-13.44z m198.72 226.048a264.64 264.64 0 0 0-70.336-96.896 321.024 321.024 0 0 1-373.888 373.952A263.168 263.168 0 0 0 487.68 691.2a263.104 263.104 0 0 0 103.168 20.864 264.64 264.64 0 0 0 187.456-77.632c24.32-24.32 43.52-52.672 56.768-84.224 13.824-32.64 20.864-67.392 20.864-103.168 0-35.84-7.04-70.528-20.864-103.168z"  horiz-adv-x="1024" />
      
      <glyph glyph-name="wenjianmingcheng_16" unicode="&#59484;" d="M236.288 832l443.072-0.832L896 607.936v-560c0-29.632-11.52-58.112-31.744-79.168a106.88 106.88 0 0 0-65.92-32.192l-10.624-0.576H236.288c-56.64 0-103.168 45.056-107.904 102.336L128 47.936V720.32C128 782.016 176.512 832.128 236.288 832z m312.32-320h-219.52c-37.632 0-68.672-28.544-72.64-65.152L256 438.848v-173.696c0-37.76 28.544-68.736 65.152-72.704l8-0.448H548.48c37.76 0 68.8 28.544 72.768 65.152l0.384 8V272l92.16-50.496a36.544 36.544 0 0 1 53.696 26.24l0.448 5.888V450.304a36.544 36.544 0 0 1-48.64 34.56l-5.504-2.432-92.16-50.368v6.784C621.696 479.232 588.992 512 548.544 512zM544 448a32 32 0 0 0 0-64h-64a32 32 0 1 0 0 64h64z"  horiz-adv-x="1024" />
      
      <glyph glyph-name="laiyuanpingtai_16" unicode="&#59485;" d="M892.608 225.024a20.288 20.288 0 0 0-11.904-18.56l-356.032-203.776a27.008 27.008 0 0 0-23.424 0l-364.672 203.904a20.352 20.352 0 0 0-11.968 17.6c-0.128 15.808 19.52 25.792 35.392 18.112l342.976-192.192a26.752 26.752 0 0 1 23.424 0l330.752 192.384c15.68 7.808 35.2-1.856 35.456-17.472z m0 109.76a20.288 20.288 0 0 0-11.904-18.56l-356.032-203.84a27.008 27.008 0 0 0-23.424 0L136.576 316.352a20.352 20.352 0 0 0-11.968 17.6c-0.128 15.808 19.52 25.856 35.392 18.048l342.912-192.192a26.752 26.752 0 0 1 23.488 0.064l330.752 192.32c15.68 7.808 35.2-1.856 35.456-17.408zM482.048 758.336a54.4 54.4 0 0 0 55.68 3.712l6.528-3.84 325.12-223.552c34.24-23.552 35.2-75.968 4.16-101.504l-6.656-4.736-326.72-200.768a54.016 54.016 0 0 0-50.56-3.584l-6.848 3.584-325.632 200.576c-35.392 21.824-38.72 74.24-8.768 101.248l6.4 5.12 327.296 223.744z"  horiz-adv-x="1024" />
      
      <glyph glyph-name="riqi_16" unicode="&#59486;" d="M288 768v-80a80 80 0 0 1 159.616-8.192L448 688V768h128v-80a80 80 0 0 1 159.616-8.192l0.384 8.192V768h64A96 96 0 0 0 896 672l0.064-310.72a257.152 257.152 0 0 1-64 52.48L832 480a96 96 0 0 1-86.784 95.552L736 576h-448a96 96 0 0 1-95.552-86.784L192 480v-320a96 96 0 0 1 86.784-95.552L288 64h194.304c13.888-24.128 31.68-45.76 52.48-64.064L224 0A96 96 0 0 0 128 96v576A96 96 0 0 0 224 768h64zM704 384a192 192 0 1 0 0-384 192 192 0 0 0 0 384z m0-64a32 32 0 0 1-31.488-26.24l-0.512-5.76V192a32 32 0 0 1 26.24-31.488l5.76-0.512h96a32 32 0 0 1 5.76 63.488l-5.76 0.512-64.064 0.064 0.064 63.936A32 32 0 0 1 704 320z m-352-48a48 48 0 1 0 0-96H320a48 48 0 1 0 0 96h32z m128 192a48 48 0 0 0 0-96H320a48 48 0 0 0 0 96h160zM368 832a48 48 0 0 0 48-48v-96a48 48 0 0 0-96 0v96A48 48 0 0 0 368 832z m288 0a48 48 0 0 0 48-48v-96a48 48 0 1 0-96 0v96a48 48 0 0 0 48 48z"  horiz-adv-x="1024" />
      
      <glyph glyph-name="laiyuanku_16" unicode="&#59487;" d="M904.576 674.304H564.416a51.648 51.648 0 0 0-38.208 16.896l-58.432 59.904C458.88 762.624 443.84 768 429.568 768H118.72A54.72 54.72 0 0 1 64 711.936v-655.872c0-31.488 24-56.064 54.72-56.064h786.56c30.72 0 54.72 24.576 54.72 56.064V618.24c-1.472 31.488-24.704 56.064-55.424 56.064zM319.616 704C354.944 704 384 674.944 384 640.384A64.64 64.64 0 0 0 319.616 576 64 64 0 0 0 256 640.384 62.848 62.848 0 0 0 319.616 704z m164.416-288.832H483.2l-105.728-7.68a22.464 22.464 0 0 0-22.528 12.992l-28.8 41.92-6.144-61.696c-1.6-8.384 0-17.536 4.608-25.152l66.112-100.544c3.072-4.608 7.744-9.92 8.512-15.232l10.112-144.768v-3.84c0-17.472-14.72-31.936-32.64-31.936a32.512 32.512 0 0 0-31.872 24.32c-0.768 2.368-0.768 4.608-1.536 6.912l-7.04 102.08a31.168 31.168 0 0 1-6.976 17.536l-47.36 60.16c-3.136 3.84-9.344 2.304-10.112-2.304l-56.768-198.016c-0.768-2.304-1.536-4.608-3.072-6.848a32.512 32.512 0 0 0-62.144 12.928c0 2.304 0 5.312 0.704 6.848l84.736 388.48-50.56-22.848 6.272-72.32v-4.608a27.712 27.712 0 0 0-27.968-24.32 27.84 27.84 0 0 0-28.032 25.856L128.064 496.64a23.936 23.936 0 0 0 12.416 22.144c1.6 0.704 3.136 2.24 5.44 3.008l36.544 13.696 97.92 38.144c1.6 0.704 3.904 0.704 5.44 1.472 22.528 6.144 48.96-21.312 55.168-32 0.832-0.704 1.6-1.472 2.368-3.008l52.864-76.16 85.44 6.08h3.904c14.72-0.768 26.432-12.928 26.432-27.456-2.304-15.232-13.184-26.624-27.968-27.392zM858.112 128H613.12c-20.8 0-37.12 14.08-37.12 32s16.32 32 37.12 32h244.992c20.8 0 37.888-14.08 37.888-32-0.768-17.92-17.088-32-37.888-32z m0 160H684.16c-21.312 0-38.08 14.08-38.08 32s16.768 32 38.08 32h173.952c21.376 0 37.888-14.08 37.888-32 0-17.28-16.512-32-37.888-32z m0 160H613.12C592.32 448 576 462.08 576 480s16.32 32 37.12 32h244.992c20.8 0 37.888-14.08 37.888-32s-17.088-32-37.888-32z"  horiz-adv-x="1024" />
      
      <glyph glyph-name="anjianyuan_16" unicode="&#59488;" d="M709.632 778.56a48.128 48.128 0 0 1-48.192-42.24 6.528 6.528 0 0 0-6.016-4.48 6.528 6.528 0 0 0-6.016 4.48V737.92a48.64 48.64 0 0 1-48.192 39.936H421.248a49.28 49.28 0 0 1-48.192-39.936v-1.472c-0.704-3.008-3.712-4.48-6.72-4.48-3.072 0-5.312 1.472-6.08 4.48V738.56a48.64 48.64 0 0 1-48.192 39.936H143.424a48.832 48.832 0 0 1-48.96-48.96V64c0-27.136 21.888-48.96 48.96-48.96h168.64A48.832 48.832 0 0 1 361.024 64c0 3.008 2.24 6.016 6.016 6.016 3.008 0 6.016-2.24 6.016-6.016 0-27.136 21.888-48.96 48.96-48.96h179.2A48.832 48.832 0 0 1 650.24 64c0 3.008 3.008 6.016 6.016 6.016s5.248-2.24 6.016-5.248V64c0-27.136 21.824-48.96 48.96-48.96h167.872A48.832 48.832 0 0 1 928 64V729.6a51.2 51.2 0 0 1-50.432 48.96h-167.936z m-542.848-606.912c0 33.92 27.072 60.992 60.992 60.992s60.992-27.072 60.992-60.992-27.136-60.992-60.992-60.992a60.736 60.736 0 0 0-60.992 60.992z m3.008 531.584h115.2l5.248-366.72H169.792v366.72z m341.12-592.576a60.736 60.736 0 0 0-61.056 60.992c0 33.92 27.136 60.992 60.992 60.992 33.92 0 60.992-27.072 60.992-60.992s-27.84-60.992-60.992-60.992z m62.464 225.92H447.616v366.72h126.528v-366.72h-0.768z m162.624 366.72h115.2v-366.72h-115.2v366.72z m57.216-592.64a60.736 60.736 0 0 0-60.992 60.992c0 33.92 27.136 60.992 60.992 60.992 33.92 0 60.992-27.072 60.992-60.992s-27.072-60.992-60.992-60.992z"  horiz-adv-x="1024" />
      
      <glyph glyph-name="chuanbingmiaoshu_16" unicode="&#59489;" d="M835.392 832c49.728 0 91.584-37.632 94.144-86.4l0.128-4.8v-572.16c0-49.472-40.32-88.64-89.536-91.072l-4.736-0.064h-47.168v-47.168c0-50.304-39.424-91.712-89.6-94.208l-4.736-0.128H222.336C170.24-64 128-21.76 128 30.336V596.224c0 52.096 42.24 94.272 94.336 94.272h47.168v50.304c0 49.536 40.32 88.704 89.472 91.072L363.776 832h471.616z m0-94.336H363.776v-47.168h330.112c50.24 0 91.712-39.36 94.208-89.6l0.128-4.672v-424.448h47.168V737.664zM426.688 256H341.312a25.408 25.408 0 0 1-15.04-4.672 15.36 15.36 0 0 1-5.888-8.192L320 240v-32c0-4.224 2.24-8.32 6.272-11.328a24.192 24.192 0 0 1 10.88-4.352l4.16-0.32h85.376c10.24 0 18.88 5.504 20.864 12.8L448 208v32c0 8.832-9.6 16-21.312 16z m128 192H341.312a25.408 25.408 0 0 1-15.04-4.672A14.336 14.336 0 0 1 320 432v-32c0-4.224 2.24-8.32 6.272-11.328A25.408 25.408 0 0 1 341.312 384h213.376C566.4 384 576 391.168 576 400v32C576 440.832 566.4 448 554.688 448z"  horiz-adv-x="1024" />
      
      <glyph glyph-name="a-24_dianwei" unicode="&#59473;" d="M293.333333 259.2a273.066667 273.066667 0 1 0 386.133334 0l-193.024-193.066667-193.109334 193.109334z m275.84 110.336A117.034667 117.034667 0 1 1 403.626667 535.04a117.034667 117.034667 0 0 1 165.546666-165.546667z"  horiz-adv-x="1024" />
      
      <glyph glyph-name="a-24_duankailianjie" unicode="&#59474;" d="M441.984 447.402667a43.946667 43.946667 0 0 0 19.285333-74.368 83.498667 83.498667 0 0 1 2.474667-111.786667l5.12-4.992 137.472-137.472c17.92-16.981333 41.258667-27.008 65.877333-28.245333 19.626667-0.512 38.656 6.997333 52.736 20.693333 14.421333 15.146667 21.930667 35.626667 20.736 56.490667-0.853333 20.992-8.96 40.96-22.826666 56.533333l-5.418667 5.632-54.613333 54.613333a43.946667 43.946667 0 0 0 58.282666 65.706667l3.84-3.541333 54.613334-54.613334a178.858667 178.858667 0 0 0 53.845333-110.08l0.768-10.453333 0.426667-9.258667a157.44 157.44 0 0 0-47.488-115.072 162.474667 162.474667 0 0 0-114.901334-47.061333 184.533333 184.533333 0 0 0-120.618666 47.530667l-7.424 7.082666-137.514667 137.514667a183.210667 183.210667 0 0 0-54.613333 128.042667A157.866667 157.866667 0 0 0 399.146667 435.2a43.946667 43.946667 0 0 0 42.837333 12.202667zM260.992 625.152l9.984-2.432 187.818667-50.346667a183.210667 183.210667 0 0 0 111.36-83.626666 157.866667 157.866667 0 0 0 16.64-123.008 43.946667 43.946667 0 1 0-84.906667 22.741333 83.498667 83.498667 0 0 1-58.624 95.829333l-6.272 1.536-187.818667 50.346667a94.592 94.592 0 0 1-71.210666-8.533333c-17.237333-9.386667-29.994667-25.344-35.328-44.288-4.906667-20.309333-1.152-41.813333 10.325333-59.306667 12.202667-16.554667 29.312-28.8 48.810667-35.029333l7.424-2.048 77.013333-20.650667a42.88 42.88 0 0 0 27.904-55.637333 44.373333 44.373333 0 0 0-48.810667-32.085334l-4.992 1.024-49.792 14.634667-35.114666 9.472a178.858667 178.858667 0 0 0-98.133334 74.496A164.437333 164.437333 0 0 0 56.746667 507.733333c11.349333 41.472 38.656 76.8 75.946666 98.176a184.533333 184.533333 0 0 0 118.186667 21.034667l10.069333-1.834667z m695.168-162.688a42.666667 42.666667 0 0 0-28.629333-48.938667l-4.821334-1.28-137.173333-27.434666a42.666667 42.666667 0 0 0-21.546667 82.432l4.821334 1.28 137.130666 27.392a42.666667 42.666667 0 0 0 50.218667-33.450667z m-79.957333 237.866667a42.666667 42.666667 0 0 0 2.986666-56.32L875.605333 640l-96.384-94.464A42.666667 42.666667 0 0 0 715.946667 602.453333l3.584 3.968 96.426666 94.464a42.666667 42.666667 0 0 0 60.288-0.597333zM614.912 768l4.992-0.213333a42.666667 42.666667 0 0 0 38.4-41.728l-0.213333-4.992-13.696-137.130667a42.666667 42.666667 0 0 0-85.12 3.541333l0.213333 4.949334 13.696 137.173333a42.666667 42.666667 0 0 0 41.728 38.4z"  horiz-adv-x="1024" />
      
      <glyph glyph-name="a-24_jianlilianjie" unicode="&#59475;" d="M852.821333 214.186667a178.858667 178.858667 0 0 1-54.613333 120.533333l-54.613333 54.613333a43.946667 43.946667 0 1 1-62.165334-62.165333l54.613334-54.613333c17.152-16.213333 27.306667-38.528 28.288-62.165334 1.194667-20.906667-6.314667-41.344-20.736-56.490666-14.08-13.696-33.066667-21.205333-52.736-20.693334a103.552 103.552 0 0 0-65.92 28.245334l-137.472 137.472a83.498667 83.498667 0 0 0-7.552 116.778666A43.946667 43.946667 0 1 1 417.749333 477.866667a157.866667 157.866667 0 0 1-47.061333-114.901334 183.210667 183.210667 0 0 1 54.613333-128.042666l137.472-137.514667a184.533333 184.533333 0 0 1 128.085334-54.613333 162.432 162.432 0 0 1 114.901333 47.061333 157.44 157.44 0 0 1 47.061333 124.330667z m-506.88 226.901333l-37.546666 37.546667-18.858667 18.816a97.536 97.536 0 0 0-30.122667 60.288c-1.194667 20.906667 6.314667 41.344 20.736 56.490666 14.08 13.738667 33.066667 21.205333 52.736 20.736 24.832-0.426667 48.469333-10.581333 65.877334-28.288l137.514666-137.472c33.92-30.378667 37.290667-82.346667 7.552-116.778666a43.946667 43.946667 0 1 1 62.122667-62.165334 157.866667 157.866667 0 0 1 47.104 114.901334 183.210667 183.210667 0 0 1-54.613333 128.085333L460.928 670.72A184.533333 184.533333 0 0 1 332.885333 725.333333a162.432 162.432 0 0 1-114.901333-47.061333c-32-32.512-49.066667-76.842667-47.061333-122.410667a178.858667 178.858667 0 0 1 54.613333-120.533333l18.816-18.816 35.797333-37.546667a44.373333 44.373333 0 0 1 62.122667 0 42.88 42.88 0 0 1 3.754667 62.122667h-0.085334z"  horiz-adv-x="1024" />
      
      <glyph glyph-name="nan_24" unicode="&#59476;" d="M85.333333 810.666667m42.666667 0l768 0q42.666667 0 42.666667-42.666667l0-768q0-42.666667-42.666667-42.666667l-768 0q-42.666667 0-42.666667 42.666667l0 768q0 42.666667 42.666667 42.666667ZM274.304 118.741333c-7.381333 13.44-15.786667 27.306667-25.088 41.728 47.061333 11.861333 83.626667 23.424 109.653333 34.688 26.837333 11.690667 47.146667 25.088 60.970667 40.277334 13.013333 14.378667 22.741333 32.938667 29.141333 55.68h-189.013333v39.68h196.906667c1.536 8.96 2.730667 23.637333 3.498666 44.032h46.677334c-0.768-11.093333-2.432-25.770667-4.949334-44.032h245.845334c-0.170667-3.328-0.554667-8.277333-1.152-14.890667a1994.112 1994.112 0 0 0-8.149334-95.957333c-3.328-30.122667-11.690667-51.328-25.088-63.573334-13.994667-12.8-37.461333-19.84-70.314666-20.992-31.104-0.768-64.853333-1.152-101.205334-1.152a329.941333 329.941333 0 0 1-9.344 44.586667c36.949333-1.152 70.869333-1.706667 101.802667-1.706667 19.456 0 33.450667 3.456 41.984 10.453334 8.576 7.04 14.208 19.456 16.938667 37.333333 3.114667 27.050667 4.949333 49.109333 5.546666 66.218667h-203.008c-6.229333-30.293333-16.512-55.125333-30.933333-74.368-15.530667-20.608-38.272-38.613333-68.266667-53.973334-29.525333-15.146667-70.357333-29.866667-122.453333-44.032z m20.096 277.077334V644.053333h434.005333v-248.234666H294.4z m43.477333 38.528h151.381334V503.765333H337.877333v-69.418666z m194.816 0h152.277334V503.765333h-152.277334v-69.418666zM337.92 538.752h151.381333v67.413333H337.877333v-67.413333z m194.816 0h152.277333v67.413333h-152.277333v-67.413333z"  horiz-adv-x="1024" />
      
      <glyph glyph-name="nv_24" unicode="&#59477;" d="M85.333333 810.666667m42.666667 0l768 0q42.666667 0 42.666667-42.666667l0-768q0-42.666667-42.666667-42.666667l-768 0q-42.666667 0-42.666667 42.666667l0 768q0 42.666667 42.666667 42.666667ZM271.658667 119.893333c-8.362667 17.493333-16.512 33.066667-24.490667 46.677334 56.576 13.226667 104.021333 27.221333 142.336 42.026666 36.565333 14.165333 67.370667 30.037333 92.458667 47.530667a5343.573333 5343.573333 0 0 1-161.877334 80.768A2086.826667 2086.826667 0 0 1 385.706667 493.269333H246.613333V536.704h155.136c16.512 47.829333 30.421333 93.610667 41.728 137.386667l51.882667-11.690667c-10.496-32.64-24.746667-74.538667-42.88-125.696h323.754667v-43.434667h-107.904c-8.96-49.792-21.376-92.586667-37.333334-128.341333a384.853333 384.853333 0 0 0-65.024-99.754667c73.301333-37.717333 134.357333-69.802667 183.168-96.256l-29.44-44.032a4948.053333 4948.053333 0 0 1-189.909333 106.154667c-26.837333-21.205333-60.074667-40.448-99.754667-57.728-41.813333-18.090667-94.592-35.882667-158.378666-53.376z m248.234666 168.021334a314.624 314.624 0 0 1 64.725334 91.861333c15.36 32.682667 26.752 70.485333 34.133333 113.493333h-182.869333a1801.898667 1801.898667 0 0 0-55.722667-137.984c54.826667-25.472 101.418667-47.914667 139.733333-67.370666z"  horiz-adv-x="1024" />
      
      <glyph glyph-name="zhongxinjiazai_24" unicode="&#59478;" d="M270.677333 363.306667l98.56 104.661333H311.466667l1.664 4.565333c34.218667 92.16 118.826667 157.354667 217.770666 157.354667 129.28 0 234.026667-111.317333 234.026667-248.618667s-104.789333-248.618667-234.026667-248.618666c-95.104 0-176.938667 60.202667-213.546666 146.688l-0.938667 2.56-62.762667-66.261334c0.426667-0.768 0.725333-1.706667 1.152-2.432l0.256-0.554666C310.442667 111.018667 413.909333 42.666667 532.48 42.666667c176.896 0 320.256 152.32 320.256 340.266666 0 187.861333-143.36 340.181333-320.256 340.181334-147.84 0-272.298667-106.410667-309.162667-251.093334-0.384-1.322667-0.426667-2.730667-0.768-4.053333h-50.346666l98.517333-104.661333z"  horiz-adv-x="1024" />
      
      <glyph glyph-name="renyuanbukong_24" unicode="&#59479;" d="M315.093333 575.658667a192.341333 192.341333 0 1 1 384.682667 0 192.341333 192.341333 0 0 1-384.682667 0z m221.781334-375.637334a170.666667 170.666667 0 0 0 61.013333 131.498667 286.336 286.336 0 0 1-42.325333 3.157333h-96.810667A288.64 288.64 0 0 1 170.666667 45.781333h366.208v154.24z m308.522666-155.050666h-6.144v155.861333a128.725333 128.725333 0 0 1-257.365333-0.085333v-155.776h-9.472a22.485333 22.485333 0 1 1 0-44.928h272.981333a22.485333 22.485333 0 0 1 0 44.928z m-148.565333 27.050666l10.538667 86.186667H651.946667l69.248 114.218667-10.453334-86.613334h55.296l-69.248-113.792z"  horiz-adv-x="1024" />
      
      <glyph glyph-name="mubiaojiansuo2" unicode="&#59461;" d="M790.089143 178.029714l207.189333-215.381333-52.711619-50.712381-207.238095 215.381333 52.760381 50.712381zM433.103238 892.245333a417.304381 417.304381 0 1 0 0-834.608762 417.304381 417.304381 0 0 0 0 834.608762z m0-73.142857a344.161524 344.161524 0 1 1 0-688.323047 344.161524 344.161524 0 0 1 0 688.323047z m0-51.590095a292.571429 292.571429 0 0 0 292.425143-283.452952l0.146286-9.118477h-73.142857A219.428571 219.428571 0 0 1 441.295238 694.223238l-8.192 0.146286v73.142857z"  horiz-adv-x="1024" />
      
      <glyph glyph-name="butaizhuapai" unicode="&#59453;" d="M623.232 786.688a64 64 0 0 0 46.336-19.882667l73.130667-76.8a64 64 0 0 1 46.336-19.882666h74.965333a64 64 0 0 0 64-64V32a64 64 0 0 0-64-64H160a64 64 0 0 0-64 64V606.122667a64 64 0 0 0 64 64h74.965333a64 64 0 0 1 46.336 19.882666l73.130667 76.8a64 64 0 0 0 46.336 19.882667h222.464z m0-64H400.768l-73.088-76.8a128 128 0 0 0-85.248-39.552l-7.466667-0.213333H160V32h704V606.122667h-74.965333a128 128 0 0 0-87.381334 34.517333l-5.333333 5.248-73.088 76.8zM512 479.914667a192 192 0 1 0 0-384 192 192 0 0 0 0 384z m0-64a128 128 0 1 1 0-256 128 128 0 0 1 0 256zM272 544a48 48 0 1 0 0-96 48 48 0 0 0 0 96z m528 0v-64h-128v64h128z"  horiz-adv-x="1024" />
      
      <glyph glyph-name="mubiaojiansuo" unicode="&#59454;" d="M733.994667 182.442667l181.290666-188.458667-46.122666-44.373333-181.333334 188.458666 46.165334 44.373334zM421.632 807.381333a365.141333 365.141333 0 1 0 0-730.282666 365.141333 365.141333 0 0 0 0 730.282666z m0-64a301.141333 301.141333 0 1 1 0-602.282666 301.141333 301.141333 0 0 1 0 602.282666z m0-45.141333a256 256 0 0 0 255.872-248.021333l0.128-7.978667h-64a192 192 0 0 1-184.832 191.872l-7.168 0.128v64z"  horiz-adv-x="1024" />
      
      <glyph glyph-name="bukongyujing" unicode="&#59455;" d="M96 0h832v-64H96V0zM512 832a352 352 0 0 0 352-352v-416H160V480A352 352 0 0 0 512 832zM512 768a288 288 0 0 1-287.872-279.509333l-0.128-8.490667V128h576V480a288 288 0 0 1-279.509333 287.872L512 768z m-19.84-151.978667l46.250667-16.042666-56.021334-161.536h128.256l-78.848-222.634667-46.165333 16.384 55.722667 157.312H413.610667l78.549333 226.517333z"  horiz-adv-x="1024" />
      
      <glyph glyph-name="anjianyanpan" unicode="&#59456;" d="M723.114667 13.909333a28.672 28.672 0 0 0-11.178667-38.997333A410.88 410.88 0 0 0 512-76.714667a410.88 410.88 0 0 0-199.936 51.626667 28.672 28.672 0 1 0 27.818667 50.176A353.536 353.536 0 0 1 512-19.285333c61.098667 0 119.893333 15.36 172.117333 44.373333a28.672 28.672 0 0 0 38.997334-11.178667zM512 848.64a112 112 0 0 0 28.714667-220.288v-102.485333A192.042667 192.042667 0 0 0 695.466667 279.466667l88.917333-56.618667a112 112 0 1 0-28.629333-49.792l-85.418667 54.4A191.786667 191.786667 0 0 0 512 144a191.573333 191.573333 0 0 0-147.968 69.632L271.616 154.88l-0.170667 0.554667a112 112 0 1 0-18.346666 50.858666l-1.408 3.925334 82.773333 52.650666a192.042667 192.042667 0 0 0 148.906667 263.04l-0.085334 102.485334A112.042667 112.042667 0 0 0 512 848.64z m352-650.026667a54.613333 54.613333 0 1 1 0-109.226666 54.613333 54.613333 0 0 1 0 109.226666z m-704 0a54.613333 54.613333 0 1 1 0-109.226666 54.613333 54.613333 0 0 1 0 109.226666zM512 470.613333a134.613333 134.613333 0 1 1 0-269.226666 134.613333 134.613333 0 0 1 0 269.226666z m255.573333 189.44a412.202667 412.202667 0 0 0 153.685334-270.549333 28.672 28.672 0 1 0-56.917334-7.381333 354.858667 354.858667 0 0 1-132.309333 232.874666 28.672 28.672 0 1 0 35.541333 45.056z m-470.869333-4.736c9.813333-12.458667 7.68-30.506667-4.693333-40.32a354.858667 354.858667 0 0 1-132.352-232.789333 28.672 28.672 0 1 0-56.917334 7.381333A412.202667 412.202667 0 0 0 256.426667 660.053333a28.672 28.672 0 0 0 40.277333-4.736zM512 791.253333a54.613333 54.613333 0 1 1 0-109.226666 54.613333 54.613333 0 0 1 0 109.226666z"  horiz-adv-x="1024" />
      
      <glyph glyph-name="ziyuanzhongxin" unicode="&#59457;" d="M832 864a64 64 0 0 0 64-64v-832a64 64 0 0 0-64-64h-640a64 64 0 0 0-64 64V800A64 64 0 0 0 192 864h640z m0-64h-640v-832h640V800z m-144-320a80 80 0 1 0 0-160 80 80 0 0 0 0 160z m-192-48a32 32 0 1 0 0-64 32 32 0 0 0 0 64zM768 608v-64H256v64h512z m0 128v-64H256v64h512z"  horiz-adv-x="1024" />
      
      <glyph glyph-name="yunweikaifa" unicode="&#59458;" d="M544 381.696l128-221.696-128-221.696h-256l-128 221.696 128 221.696h256zM270.293333 807.68a318.250667 318.250667 0 0 0 329.813334-75.221333 316.757333 316.757333 0 0 0 92.928-226.176l-0.213334-10.496-0.298666-4.778667L900.266667 283.306667a192 192 0 0 0 10.496-260.138667l-5.504-6.186667-4.992-5.205333a192 192 0 0 0-257.28-12.885333l32.64 56.533333a128 128 0 0 1 184.234666 177.536l-4.864 5.12-218.026666 218.026667a32 32 0 0 0-9.216 25.856 253.44 253.44 0 0 1-265.557334 279.125333l-9.6-0.682667-8.576-0.938666 93.952-93.952 4.053334-4.522667a82.901333 82.901333 0 0 0-1.109334-107.392l-3.968-4.266667-107.264-107.221333-4.522666-4.096a82.901333 82.901333 0 0 0-107.392 1.109333l-4.266667 3.968-92.928 92.928-0.896-8.533333a253.653333 253.653333 0 0 1 60.16-188.288l6.656-7.424 5.418667-5.632-32.896-57.002667-4.181334 3.754667-7.253333 6.997333a318.250667 318.250667 0 0 0-75.178667 329.813334 32 32 0 0 0 49.92 14.72l2.901334-2.56 133.546666-133.546667a19.114667 19.114667 0 0 1 22.016-3.626667l2.304 1.536 2.389334 2.133334 106.24 106.24a19.114667 19.114667 0 0 1 3.669333 22.016l-1.536 2.304-2.133333 2.389333-133.546667 133.546667a32 32 0 0 0 12.16 52.821333z m236.714667-489.941333H324.949333L233.898667 160l91.050666-157.738667h182.058667l91.093333 157.738667-91.093333 157.696zM416 224a64 64 0 1 0 0-128 64 64 0 0 0 0 128z"  horiz-adv-x="1024" />
      
      <glyph glyph-name="taishijiankong" unicode="&#59459;" d="M160 800v-768h768v-64H128a32 32 0 0 0-31.786667 28.288L96 0V800h64z m190.293333-384l1.706667-319.274667a32.128 32.128 0 0 0-27.349333-32.469333l-3.626667-0.256c-17.237333-0.085333-31.274667 14.421333-31.36 32.426667l-1.664 277.76 62.293333 41.813333z m161.28 128L512 128a31.914667 31.914667 0 0 0-28.032-31.786667l-3.712-0.213333a31.872 31.872 0 0 0-31.786667 32L448 503.168l63.573333 40.789333z m160.426667-96v-320.042667a32 32 0 0 0-64 0v280.746667l64 39.296z m191.573333 96l0.426667-416.554667a31.573333 31.573333 0 0 0-28.032-31.232l-3.712-0.213333a31.573333 31.573333 0 0 0-31.786667 31.402667l-0.469333 377.941333 63.573333 38.656z m-339.968 192l95.872-158.421333 170.069334 108.202666-21.674667 42.282667 192.128-14.549333-361.130667-225.92-95.146666 157.269333L256 480V558.165333l267.605333 177.834667z"  horiz-adv-x="1024" />
      
      <glyph glyph-name="yonghuzhongxin" unicode="&#59460;" d="M306.474667 622.378667a48.896 48.896 0 0 1-12.16 0.725333l-4.778667-0.384-14.506667-1.834667-3.2-0.298666a49.493333 49.493333 0 0 0-20.138666 2.090666c-20.053333 6.613333-28.416 23.68-28.416 44.373334C223.274667 756.48 354.602667 816.64 512 816.64c157.397333 0 288.725333-60.16 288.725333-149.674667 0-18.773333-6.144-34.176-24.021333-41.984a40.789333 40.789333 0 0 0-16.085333-3.413333l-5.12 0.128-9.386667 1.066667-6.4 0.597333a35.584 35.584 0 0 1-5.034667-0.042667l-2.176-0.298666-2.432-0.597334-4.010666-5.717333a186.197333 186.197333 0 0 0-17.834667-20.821333 232.533333 232.533333 0 0 0 10.88-70.698667c0-121.301333-92.16-220.586667-207.104-220.586667s-207.104 99.285333-207.104 220.586667c0 28.757333 5.162667 56.746667 15.061333 82.773333l-5.973333 7.722667-4.053333 5.802667-3.413334 0.853333z m66.474666-60.16l-1.706666-8.533334a171.946667 171.946667 0 0 1-2.346667-28.458666c0-86.954667 64.64-156.586667 143.104-156.586667 78.506667 0 143.104 69.632 143.104 156.586667 0 10.666667-0.981333 21.205333-2.901333 31.445333-32.725333-15.701333-71.424-24.618667-115.029334-26.88l-11.989333-0.426667-10.410667-0.128c-56.704 0-103.893333 10.709333-141.824 33.024zM512 752.725333c-100.48 0-183.466667-28.672-213.077333-60.8l-2.986667-3.413333-0.938667-1.28 1.92 0.042667c9.002667 0.085333 17.664-0.853333 26.794667-3.157334l6.997333-1.962666 7.253334-2.56 5.589333-2.389334a32 32 0 0 0 12.288-9.173333l2.261333-3.114667 3.84-6.101333C391.509333 614.4 439.466667 593.237333 514.816 593.237333c74.794667 0 129.024 20.906667 158.549333 59.818667l3.84 5.418667 4.138667 6.4a32 32 0 0 0 9.045333 9.344l3.797334 2.176 6.229333 3.029333a95.146667 95.146667 0 0 0 17.962667 6.058667l5.76 1.066666 4.906666 0.597334-0.938666 1.28c-25.002667 31.36-101.333333 60.330667-196.394667 63.872l-10.24 0.298666L512 752.682667z m2.261333-28.16l53.077334-53.034666-53.077334-53.077334-53.034666 53.077334 53.034666 53.034666z m180.010667-434.474666a384 384 0 0 0 200.704-309.930667l0.64-10.666667-63.957333-2.901333a319.573333 319.573333 0 0 1-110.08 227.285333l-2.645334 2.261334-0.341333-6.229334c-7.210667-111.658667-92.586667-201.130667-199.253333-205.056l-7.338667-0.128c-110.08 0-199.253333 91.008-206.592 205.226667l-0.341333 6.186667-2.645334-2.261334a319.573333 319.573333 0 0 1-109.482666-217.002666l-0.597334-10.24-63.957333 2.858666a383.957333 383.957333 0 0 0 201.386667 320.64 32 32 0 0 0 45.909333-37.162666 169.301333 169.301333 0 0 1-6.784-47.701334c0-64.853333 35.968-120.106667 86.869333-143.957333l33.536 98.56h50.986667l29.141333-98.005333c50.261333 24.149333 85.674667 79.018667 85.674667 143.402666 0 16.426667-2.304 32.426667-6.741333 47.701334a32 32 0 0 0 45.909333 37.12z m-180.010667-13.525334l53.077334-53.034666-33.536-32.768h-39.850667l-32.725333 32.768 53.034666 53.034666z"  horiz-adv-x="1024" />
      
      <glyph glyph-name="shangchuanxiazai-gai" unicode="&#59452;" d="M877.696 896A146.304 146.304 0 0 0 1024 749.696V18.346667A146.304 146.304 0 0 0 877.696-128H146.346667A146.304 146.304 0 0 0 0 18.304V749.653333A146.304 146.304 0 0 0 146.304 896H877.653333z m-417.706667-243.072a18.304 18.304 0 0 1-25.898666 0l-209.322667-209.322667a18.304 18.304 0 0 1 12.928-31.189333h117.888v-295.125333c0-10.112 8.192-18.304 18.304-18.304h73.130667a18.304 18.304 0 0 1 18.304 18.304V640a18.304 18.304 0 0 1-5.376 12.928zM640 658.304h-73.130667a18.304 18.304 0 0 1-18.304-18.304v-522.709333a18.304 18.304 0 0 1 31.232-12.928l209.322667 209.322666a18.304 18.304 0 0 1-12.928 31.189334h-117.888V640A18.304 18.304 0 0 1 640 658.304z"  horiz-adv-x="1024" />
      
      <glyph glyph-name="yunshangchuanxiazai" unicode="&#59451;" d="M694.237288 890.211797c193.588068-0.008678 352.820068-152.480542 361.220339-345.886373l0.364475-15.689763c179.720678 0 325.423729-145.703051 325.423729-325.423729 0-179.729356-145.703051-325.423729-325.423729-325.423729H332.652475c-179.720678 0-325.423729 145.694373-325.423729 325.423729 0 179.720678 145.703051 325.423729 325.423729 325.423729l0.364474 15.689763C341.41722 737.731254 500.64922 890.203119 694.237288 890.211797z m206.46617-399.620339a36.161085 36.161085 0 0 1-51.130577 0L696.120407 337.138983a36.178441 36.178441 0 1 1 51.2-51.130576l91.621966 91.700068v-283.049221a36.161085 36.161085 0 1 1 72.313491 0V377.777898l91.700068-91.769491a36.161085 36.161085 0 0 1 51.130576 51.130576l-153.38305 153.452475zM513.518644 501.152542a36.161085 36.161085 0 0 1-36.161085-36.161084v-283.040543L385.735593 273.642305a36.204475 36.204475 0 1 1-51.2-51.2l153.452475-153.304949a36.161085 36.161085 0 0 1 51.130576 0v-0.078102L692.501695 222.442305a36.178441 36.178441 0 0 1-51.130576 51.2L549.679729 181.80339V464.991458a36.161085 36.161085 0 0 1-36.161085 36.161084z"  horiz-adv-x="1388" />
      
      <glyph glyph-name="a-35weiye1" unicode="&#59449;" d="M469.7 63.3c-20.4-20.1-20.6-52.9-0.5-73.3s52.9-20.6 73.3-0.5l0.5 0.5 362.9 362.9c20.2 20.2 20.2 53.1 0 73.3L543 789.1c-20.1 20.4-52.9 20.6-73.3 0.5s-20.6-52.9-0.5-73.3l0.5-0.5L796 389.6 469.7 63.3zM115.7 63.3c-20.4-20.1-20.6-52.9-0.5-73.3s52.9-20.6 73.3-0.5l0.5 0.5 362.9 362.9c20.2 20.2 20.2 53.1 0 73.3L189 789.1c-20.1 20.4-52.9 20.6-73.3 0.5s-20.6-52.9-0.5-73.3l0.5-0.5L442 389.6 115.7 63.3z"  horiz-adv-x="1024" />
      
      <glyph glyph-name="a-34shouye" unicode="&#59450;" d="M225.3 389.6l326.3 326.2 0.5 0.5c20.1 20.4 19.9 53.2-0.5 73.3-20.4 20.1-53.2 19.9-73.3-0.5L115.4 426.2c-20.2-20.2-20.2-53.1 0-73.3L478.3-10l0.5-0.5c20.4-20.1 53.2-19.9 73.3 0.5 20.1 20.4 19.9 53.2-0.5 73.3L225.3 389.6zM579.3 389.6l326.3 326.2 0.5 0.5c20.1 20.4 19.9 53.2-0.5 73.3-20.4 20.1-53.2 19.9-73.3-0.5L469.4 426.2c-20.2-20.2-20.2-53.1 0-73.3L832.3-10l0.5-0.5c20.4-20.1 53.2-19.9 73.3 0.5 20.1 20.4 19.9 53.2-0.5 73.3L579.3 389.6z"  horiz-adv-x="1024" />
      
      <glyph glyph-name="yonghutouxiang" unicode="&#59448;" d="M512.064 896C230.528 896 0 665.6 0 383.936S230.4-128 512.064-128 1024 102.4 1024 384.064C1024.128 665.6 793.728 896 512.064 896z m11.936-167.84c176.736 0 176.736-133.28 176.736-208.64 0-75.392-69.568-214.496-176.736-217.344-104.32 0-176.736 139.104-176.736 217.344 0 75.36 0 208.64 176.736 208.64zM176.224 122.464c11.616 28.992 26.112 60.896 46.4 78.24 43.456 34.784 173.888 92.704 173.888 92.704l81.184-156.448 14.496 37.632-23.264 46.4 46.4 46.4 46.4-46.4-20.384-49.28 11.616-37.728 84.032 153.6s130.432-57.92 173.888-92.704c20.288-14.464 34.784-40.576 43.456-63.744-78.24-101.344-202.88-170.976-341.984-170.976-133.28 0-255.04 66.752-336.128 162.304z"  horiz-adv-x="1024" />
      
      <glyph glyph-name="qingyingyong-xuanzhong" unicode="&#59447;" d="M409.6-116.622c28.444-17.067 51.2-5.69 51.2 28.444V310.044c0 34.134-22.756 68.267-51.2 85.334l-329.956 204.8c-28.444 11.378-51.2 0-51.2-28.445v-398.222c0-34.133 22.756-68.267 51.2-85.333l329.956-204.8zM130.844 725.333c-28.444-17.066-28.444-39.822 0-56.889l324.267-204.8c28.445-17.066 68.267-17.066 96.711-5.688L876.09 622.933c28.444 17.067 28.444 39.823 0 56.89l-341.333 204.8c-22.756 17.066-68.267 17.066-96.712 0l-307.2-159.29z m420.978-813.51c0-34.134 22.756-45.512 51.2-28.445L927.29 48.356c28.444 17.066 51.2 51.2 51.2 85.333V531.91c0 34.133-22.756 45.511-51.2 28.445L603.022 395.378c-28.444-17.067-51.2-51.2-51.2-85.334v-398.222z"  horiz-adv-x="1024" />
      
      <glyph glyph-name="fangxianglianxujiantou-xiangyou" unicode="&#59446;" d="M682.667 554.667V725.333L1024 384 682.667 42.667V213.333H469.333V554.667h213.334z m-298.667 0h-85.333v-341.334H384V554.667z m-171.264 0H128v-341.334h84.736V554.667z m-170.07 0H0v-341.334h42.667V554.667z"  horiz-adv-x="1024" />
      
      <glyph glyph-name="yidongdao" unicode="&#59445;" d="M725.333333 232.96000000000004h24.32a42.666667 42.666667 0 0 1 42.666667 42.666667V620.8a42.666667 42.666667 0 0 1-42.666667 42.666667H403.626667a42.666667 42.666667 0 0 1-42.666667-42.666667V597.333333H640a85.333333 85.333333 0 0 0 85.12-78.933333L725.333333 512v-279.04z m-255.914666 188.458667l-3.754667-3.456-3.456-3.797334c-10.496-12.544-10.496-25.130667 0-37.674666l3.413333-3.797334 20.693334-20.650666-157.354667-0.042667c-19.541333 0-30.165333-8.96-31.786667-26.88l-0.213333-5.12 0.213333-5.12c1.493333-16.298667 10.368-25.173333 26.666667-26.666667l5.12-0.213333 156.330667 0.042667-20.181334-20.224c-13.824-13.824-14.933333-27.648-3.413333-41.472l3.413333-3.797334 3.797334-3.413333c12.544-10.496 25.130667-10.496 37.717333 0l3.754667 3.413333 68.437333 68.437334 3.754667 2.816 3.754666 3.456 3.456 3.797333c9.6 11.52 10.410667 22.997333 2.432 34.474667l-2.901333 3.84-3.498667 3.84-1.664 1.536-73.216 73.216c-13.866667 13.824-27.690667 14.933333-41.514666 3.413333v0.042667zM725.333333 128a85.333333 85.333333 0 0 0-78.933333-85.12L640 42.66666699999996H256a85.333333 85.333333 0 0 0-85.12 78.933333L170.666667 128V512a85.333333 85.333333 0 0 0 78.933333 85.12L256 597.333333h42.666667V640a85.333333 85.333333 0 0 0 85.333333 85.333333h384a85.333333 85.333333 0 0 0 85.333333-85.333333v-384a85.333333 85.333333 0 0 0-85.333333-85.333333h-42.666667v-42.666667z"  horiz-adv-x="1024" />
      
      <glyph glyph-name="jiantou-xiangxia" unicode="&#59444;" d="M744.63 247.737H284.103l230.265-311.085zM640.662 465.76v-180.8H385.415v180.8h255.247z m0 186.118v-122.307H385.415V651.878h255.247z m0 180.799v-90.399H385.415V832.677h255.247z"  horiz-adv-x="1024" />
      
      <glyph glyph-name="yingwen" unicode="&#59442;" d="M1194.666667 896A170.666667 170.666667 0 0 0 1365.333333 725.333333v-341.333333a170.666667 170.666667 0 0 0-170.666666-170.666667h-56.9344v-170.666666a170.666667 170.666667 0 0 0-170.666667-170.666667H170.666667A170.666667 170.666667 0 0 0 0 42.666667V497.800533a170.666667 170.666667 0 0 0 170.666667 170.666667h56.866133V725.333333a170.666667 170.666667 0 0 0 170.666667 170.666667H1194.666667zM638.225067 394.376533l-3.413334-0.136533a41.642667 41.642667 0 0 1-38.638933-44.509867v-248.2176a45.6704 45.6704 0 0 1 91.272533 0V260.232533a51.4048 51.4048 0 0 0 52.497067 50.312534c11.127467 0 40.686933 0 40.686933-45.056v-163.976534a41.506133 41.506133 0 0 1 46.353067-43.963733 44.919467 44.919467 0 0 1 33.109333 12.356267 43.008 43.008 0 0 1 11.8784 31.607466V274.158933c0 75.229867-43.144533 120.0128-115.3024 120.0128a119.261867 119.261867 0 0 1-73.3184-23.688533 42.5984 42.5984 0 0 1-41.7792 23.688533 42.530133 42.530133 0 0 1-6.7584 0.068267zM508.177067 484.625067H336.554667c-57.002667 0-82.466133-25.3952-82.466134-82.1248v-252.859734c0-56.797867 25.3952-82.1248 82.466134-82.1248H516.096a40.413867 40.413867 0 0 1 43.554133 43.554134v4.7104a41.028267 41.028267 0 0 1-43.554133 38.2976H353.0752a36.386133 36.386133 0 0 0-4.5056 0.341333 14.336 14.336 0 0 0-0.477867 4.164267V238.728533h141.448534a40.277333 40.277333 0 0 1 43.554133 42.530134 39.594667 39.594667 0 0 1-43.554133 42.1888h-141.312V393.557333c0 2.730667 0.341333 3.822933 0.2048 3.822934a12.014933 12.014933 0 0 0 4.778666 0.682666h154.965334a43.281067 43.281067 0 0 1 0 86.562134zM1194.666667 782.267733H398.199467A56.866133 56.866133 0 0 1 341.333333 725.333333v-56.866133h625.800534a170.666667 170.666667 0 0 0 170.666666-170.666667l-0.068266-170.666666h56.9344c31.402667 0 56.866133 25.463467 56.866133 56.866133v341.333333a56.866133 56.866133 0 0 1-56.866133 56.866134z"  horiz-adv-x="1365" />
      
      <glyph glyph-name="zhongwen" unicode="&#59443;" d="M1194.666667 896A170.666667 170.666667 0 0 0 1365.333333 725.333333v-341.333333a170.666667 170.666667 0 0 0-170.666666-170.666667h-56.9344v-170.666666a170.666667 170.666667 0 0 0-170.666667-170.666667H170.666667A170.666667 170.666667 0 0 0 0 42.66666699999996V497.800533a170.666667 170.666667 0 0 0 170.666667 170.666667h56.866133V725.333333a170.666667 170.666667 0 0 0 170.666667 170.666667H1194.666667zM573.303467 520.465067l-3.822934-0.136534a41.437867 41.437867 0 0 1-37.956266-44.6464v-21.572266H417.792c-61.0304 0-88.405333-27.101867-88.405333-87.8592v-125.201067c0-61.0304 27.306667-88.405333 88.405333-88.405333h113.732267v-84.1728a42.1888 42.1888 0 0 1 47.854933-45.124267 42.325333 42.325333 0 0 1 46.6944 45.056v84.241067h114.688c61.098667 0 88.4736 27.2384 88.4736 88.337066V366.250667c0 60.757333-27.306667 87.8592-88.4736 87.8592H626.005333v21.640533c0 20.343467-8.533333 44.578133-48.878933 44.578133a42.257067 42.257067 0 0 1-7.645867 0z m153.122133-155.4432c8.3968 0 9.489067-1.092267 9.489067-9.489067v-104.311467c0-8.328533-1.092267-9.4208-9.489067-9.4208h-100.352V365.02186700000004z m-194.901333 0v-123.2896H432.264533c-8.6016 0-9.4208 0.8192-9.4208 9.557333V355.53279999999995c0 8.669867 0.8192 9.4208 9.4208 9.4208h99.259734zM1194.666667 782.1312H398.199467A56.866133 56.866133 0 0 1 341.333333 725.333333v-56.866133h625.800534a170.666667 170.666667 0 0 0 170.666666-170.666667l-0.068266-170.666666h56.9344c31.402667 0 56.866133 25.463467 56.866133 56.866133v341.333333a56.866133 56.866133 0 0 1-56.866133 56.866134z"  horiz-adv-x="1365" />
      
      <glyph glyph-name="a-16PX-dark" unicode="&#58884;" d="M623.68 849.472c202.496-51.2 353.792-237.44 353.792-458.496 0-260.672-209.472-472.448-465.472-472.448-244.352 0-444.48 190.848-463.104 435.2C46.528 356.096 46.528 358.4 46.528 363.072a26.88 26.88 0 0 0 27.968 27.904c13.952 0 23.232-9.28 27.904-20.928 51.2-123.328 172.16-209.472 311.872-209.472 186.176 0 337.408 153.6 337.408 344.448 0 120.96-60.48 225.728-153.6 288.576a31.552 31.552 0 0 0-16.256 25.6c0 16.32 13.952 30.272 27.904 30.272h13.952z"  horiz-adv-x="1024" />
      
      <glyph glyph-name="a-16PX-Light" unicode="&#58885;" d="M528 57.088a16 16 0 0 0 16-16.128v-88.832a16 16 0 0 0-16-16.128h-24.064a16 16 0 0 0-16 16.128V40.96a16 16 0 0 0 16 16.128h24.128z m-253.632 102.656l17.024-17.152a16.192 16.192 0 0 0 0-22.784l-62.272-62.848a15.872 15.872 0 0 0-22.528 0l-17.088 17.152a16.192 16.192 0 0 0 0 22.784l62.336 62.848a15.872 15.872 0 0 0 22.528 0z m503.488 5.76l62.272-62.912a16.192 16.192 0 0 0 0-22.72l-17.024-17.216a15.872 15.872 0 0 0-22.592 0l-62.272 62.848a16.192 16.192 0 0 0 0 22.784l17.024 17.152a15.872 15.872 0 0 0 22.592 0z m-257.856 464.64c136.96 0 248-112 248-250.176 0-138.24-111.04-250.24-248-250.24-136.96 0-248 112-248 250.24s111.04 250.24 248 250.24z m-352-217.856a16 16 0 0 0 16-16.128v-24.32a16 16 0 0 0-16-16.064H80A16 16 0 0 0 64 371.84v24.32a16 16 0 0 0 16 16.128h88.064z m776.064 8.064a16 16 0 0 0 15.936-16.128v-24.32a16 16 0 0 0-16-16.064h-88.064a16 16 0 0 0-15.936 16.064v24.32a16 16 0 0 0 16 16.128h88.064zM223.36 713.408l62.336-62.848a16.192 16.192 0 0 0 0-22.784l-17.024-17.152a15.872 15.872 0 0 0-22.592 0l-62.272 62.848a16.192 16.192 0 0 0 0 22.784l17.024 17.152a15.872 15.872 0 0 0 22.592 0z m593.984 5.76l17.088-17.28a16.192 16.192 0 0 0 0-22.72l-62.336-62.848a15.872 15.872 0 0 0-22.528 0l-17.024 17.216a16.192 16.192 0 0 0 0 22.72l62.272 62.848a15.872 15.872 0 0 0 22.528 0zM520.064 832a16 16 0 0 0 16-16.128V727.04a16 16 0 0 0-16-16.128h-24.128A16 16 0 0 0 480 727.04V815.872A16 16 0 0 0 496 832h24.064z"  horiz-adv-x="1024" />
      
      <glyph glyph-name="a-24PX-erjiyujing" unicode="&#59441;" d="M512 640a256 256 0 0 0 256-256v-255.274667h32a64 64 0 1 0 0-128H224a64 64 0 0 0 0 128H256V384a256 256 0 0 0 256 256z m-2.432-182.4c-30.464 0-58.154667-6.954667-83.114667-20.906667l-9.216-5.546666v-60.842667l7.424 6.144c22.4 17.365333 45.738667 26.026667 70.016 26.026667 15.616 0 27.221333-3.413333 34.773334-10.24 7.594667-6.912 11.392-17.066667 11.392-30.464 0-6.826667-1.152-13.269333-3.498667-19.328a67.797333 67.797333 0 0 0-10.624-17.92 137.728 137.728 0 0 0-17.493333-17.834667l-9.898667-8.149333-5.461333-4.224-17.706667-12.970667c-6.058667-4.522667-12.288-9.386667-18.773333-14.592a176.469333 176.469333 0 0 1-26.794667-26.88 143.36 143.36 0 0 1-20.352-34.389333c-4.266667-10.197333-6.912-21.461333-7.765333-33.749334l-0.298667-9.429333v-23.637333h208.64v57.301333H477.866667l0.298666 3.114667a26.709333 26.709333 0 0 0 4.096 9.813333c2.901333 4.522667 6.826667 9.130667 11.818667 13.866667 4.949333 4.736 10.666667 9.557333 17.152 14.464l9.941333 7.338666 25.6 18.346667 14.677334 11.264c9.642667 7.68 18.133333 16.085333 25.472 25.258667 7.381333 9.216 13.269333 19.413333 17.749333 30.634666 4.437333 11.221333 6.656 24.064 6.656 38.485334 0 13.568-2.304 25.856-6.912 36.864a76.032 76.032 0 0 1-20.010667 28.16 90.453333 90.453333 0 0 1-32 17.792 136.32 136.32 0 0 1-42.794666 6.229333zM160 384v-64h-128V384h128z m832 0v-64h-128V384h128z m-163.2 330.026667l45.226667-45.226667-90.496-90.538667-45.226667 45.269334 90.453333 90.496z m-633.6 0l90.538667-90.496-45.269334-45.226667-90.496 90.453333 45.226667 45.269334zM544 832v-128h-64v128h64z"  horiz-adv-x="1024" />
      
      <glyph glyph-name="a-24PX-yijiyujing" unicode="&#59438;" d="M512 640a256 256 0 0 0 256-256v-255.274667h32a64 64 0 1 0 0-128H224a64 64 0 0 0 0 128H256V384a256 256 0 0 0 256 256z m54.016-180.650667h-41.813333a288.853333 288.853333 0 0 0-80.554667-42.794666l-13.269333-4.266667V354.133333a147.456 147.456 0 0 1 53.248 17.834667c3.456 2.005333 6.613333 4.053333 9.429333 6.229333l4.053333 3.285334v-242.816h68.906667v320.682666zM160 384v-64h-128V384h128z m832 0v-64h-128V384h128z m-163.2 330.026667l45.226667-45.226667-90.496-90.538667-45.226667 45.269334 90.453333 90.496z m-633.6 0l90.538667-90.496-45.269334-45.226667-90.496 90.453333 45.226667 45.269334zM544 832v-128h-64v128h64z"  horiz-adv-x="1024" />
      
      <glyph glyph-name="a-24PX-sanjiyujing" unicode="&#59439;" d="M512 640a256 256 0 0 0 256-256v-255.274667h32a64 64 0 1 0 0-128H224a64 64 0 0 0 0 128H256V384a256 256 0 0 0 256 256z m-13.610667-182.4c-25.6 0-48.469333-4.266667-68.565333-12.714667l-8.405333-3.925333v-56.405333c19.84 13.568 40.234667 20.352 61.226666 20.352 31.36 0 47.061333-12.8 47.061334-38.314667 0-25.429333-17.962667-38.912-53.845334-40.533333l-7.424-0.128h-26.88v-52.949334h29.056c21.333333 0 38.058667-3.797333 50.218667-11.392 12.16-7.552 18.261333-18.346667 18.261333-32.341333 0-13.568-4.906667-24.149333-14.762666-31.744-9.813333-7.594667-23.594667-11.349333-41.216-11.349333a122.581333 122.581333 0 0 0-66.389334 18.133333L409.6 209.066667v-60.16c20.266667-10.496 46.592-15.786667 78.933333-15.786667 37.802667 0 67.413333 8.533333 88.832 25.6 21.461333 17.066667 32.170667 40.277333 32.170667 69.589333 0 19.413333-6.4 35.754667-19.242667 49.109334-11.221333 11.690667-26.026667 19.285333-44.416 22.869333l-8.106666 1.28v1.109333c41.557333 10.368 62.336 36.010667 62.336 77.013334 0 23.04-8.917333 41.813333-26.794667 56.234666-17.834667 14.421333-42.837333 21.632-74.922667 21.632zM160 384v-64h-128V384h128z m832 0v-64h-128V384h128z m-163.2 330.026667l45.226667-45.226667-90.496-90.538667-45.226667 45.269334 90.453333 90.496z m-633.6 0l90.538667-90.496-45.269334-45.226667-90.496 90.453333 45.226667 45.269334zM544 832v-128h-64v128h64z"  horiz-adv-x="1024" />
      
      <glyph glyph-name="a-24PX-sijiyujing" unicode="&#59440;" d="M512 640a256 256 0 0 0 256-256v-255.274667h32a64 64 0 1 0 0-128H224a64 64 0 0 0 0 128H256V384a256 256 0 0 0 256 256z m80.213333-187.648H528.213333c-7.296-15.786667-16.170667-32.256-26.581333-49.536-10.453333-17.28-21.717333-34.474667-33.792-51.541333-12.117333-17.066667-24.661333-33.621333-37.632-49.749334-9.728-12.074667-19.2-23.466667-28.458667-34.133333l-9.173333-10.368v-54.058667h136.704v-64.298666h63.018667v64.298666h37.632v51.626667h-37.632v197.76zM160 384v-64h-128V384h128z m832 0v-64h-128V384h128z m-163.2 330.026667l45.226667-45.226667-90.496-90.538667-45.226667 45.269334 90.453333 90.496z m-633.6 0l90.538667-90.496-45.269334-45.226667-90.496 90.453333 45.226667 45.269334zM544 832v-128h-64v128h64zM454.4 254.592h74.837333v109.610667a567.722667 567.722667 0 0 0-35.413333-57.429334 1002.965333 1002.965333 0 0 0-39.381333-52.181333z"  horiz-adv-x="1024" />
      
      <glyph glyph-name="yichu" unicode="&#59437;" d="M904.647111 853.105778a49.493333 49.493333 0 0 0 49.038222-43.235556l0.398223-6.200889V584.248889a49.493333 49.493333 0 0 0-98.531556-6.200889l-0.398222 6.257778V754.176H169.984v-736.824889H329.386667a49.493333 49.493333 0 0 0 47.957333-37.262222l1.137778-5.973333 0.398222-6.257778a49.493333 49.493333 0 0 0-43.235556-49.038222l-6.257777-0.398223H120.604444a49.493333 49.493333 0 0 0-49.095111 43.235556l-0.398222 6.257778V803.669333A49.493333 49.493333 0 0 0 114.346667 852.764444l6.257777 0.341334h784.042667z m51.768889-482.645334c24.462222-24.519111 26.168889-63.146667 5.233778-89.656888l-5.233778-5.916445-112.298667-112.184889 112.412445-112.298666c22.755556-22.755556 25.884444-57.628444 9.329778-83.854223l-4.551112-6.314666-4.949333-5.518223a67.811556 67.811556 0 0 0-89.656889-4.949333l-5.688889 5.12-112.298666 112.241778-112.412445-112.412445c-9.159111-9.102222-20.48-15.189333-32.711111-17.92l-7.395555-1.251555-7.509334-0.455111a67.584 67.584 0 0 0-53.020444 109.397333l5.290666 5.916445 112.128 112.241777-112.241777 112.241778a67.584 67.584 0 0 0-9.671111 83.342222l4.380444 6.314667 5.290667 5.916444c24.462222 24.462222 63.146667 26.168889 89.6 5.233778l5.916444-5.233778 112.298667-112.298666 112.184889 112.298666a67.584 67.584 0 0 0 95.573333 0zM412.444444 327.111111a56.888889 56.888889 0 0 0 0-113.777778h-113.777777a56.888889 56.888889 0 0 0 0 113.777778h113.777777z m341.333334 284.444445a56.888889 56.888889 0 0 0 0-113.777778h-455.111111a56.888889 56.888889 0 1 0 0 113.777778h455.111111z"  horiz-adv-x="1024" />
      
      <glyph glyph-name="shangchuanshipin" unicode="&#59436;" d="M678.912 894.912a217.984 217.984 0 0 0 217.408-217.344v-10.624a56.32 56.32 0 0 0-112.768 0v10.624a104.768 104.768 0 0 1-104.64 104.576H464.128v-274.88a46.208 46.208 0 0 0-46.208-46.208H144.64v-363.392a104.768 104.768 0 0 1 104.64-104.64h504.768a56.32 56.32 0 0 0 0-112.704v-0.128H249.408A217.984 217.984 0 0 0 32 97.6v382.08c0.128 57.6 23.04 112.832 63.744 153.664l197.76 197.888a218.56 218.56 0 0 0 153.6 63.68h231.808zM764.8 515.2c37.568 0 56.32-18.752 56.32-56.32v-112.768h112.768c34.688 0 53.376-16 56-48l0.32-8.32c0-37.632-18.752-56.384-56.32-56.384H821.12v-112.768c0-34.688-16-53.376-48-56l-8.32-0.32c-37.632 0-56.384 18.752-56.384 56.32v112.768H595.648c-34.688 0-53.312 16-56 48l-0.32 8.32c0 37.632 18.752 56.384 56.32 56.384h112.768V458.944c0 34.688 16 53.312 48 56l8.32 0.32z"  horiz-adv-x="1024" />
      
      <glyph glyph-name="shangchuanwenjianjihe" unicode="&#59435;" d="M1047.120842-89.519158H123.203368A123.203368 123.203368 0 0 0 0 33.684211V772.796632A123.203368 123.203368 0 0 0 123.203368 896h369.556211l123.203368-123.203368h431.157895a123.203368 123.203368 0 0 0 123.149474-123.149474H123.203368V33.684211L254.922105 526.443789h970.752a61.601684 61.601684 0 0 0 61.601684-77.608421l-119.484631-445.925052a123.203368 123.203368 0 0 0-120.724211-92.429474zM679.073684 170.091789l63.59579-63.595789a86.231579 86.231579 0 0 0 0-121.909895l-137.216 137.162106A43.008 43.008 0 0 0 592.842105 152.252632V410.947368a86.231579 86.231579 0 0 0 86.231579-86.231579v-154.624z"  horiz-adv-x="1293" />
      
      <glyph glyph-name="butaicang" unicode="&#58882;" d="M547.626667 660.053333l3.306666-2.538666 261.034667-213.717334a24.32 24.32 0 0 0-28.586667-39.189333l-2.346666 1.642667-28.181334 23.104 0.021334-261.376a74.176 74.176 0 0 0-65.92-73.813334l-4.010667-0.341333-4.053333-0.106667H343.616a74.112 74.112 0 0 0-73.898667 70.186667l-0.106666 4.053333V428.138667l-26.538667-21.76a24.32 24.32 0 0 0-18.56-5.546667l-2.816 0.512-2.773333 0.853333a24.32 24.32 0 0 0-8.896 39.808l2.133333 1.92 260.906667 213.610667a61.418667 61.418667 0 0 0 74.581333 2.538667z m-39.893334-37.973333l-1.984-0.917333-1.877333-1.28-185.642667-152v-299.904c0-13.290667 10.026667-24.192 22.784-25.493334l2.581334-0.128h335.296c13.098667 0 23.914667 10.048 25.216 22.997334l0.128 2.624V469.12l-184.128 150.741333a12.8 12.8 0 0 1-12.373334 2.176z m-39.957333-306.261333a26.090667 26.090667 0 0 0 26.069333-26.133334v-68.650666a26.090667 26.090667 0 0 0-26.069333-26.154667h-68.309333a26.090667 26.090667 0 0 0-26.069334 26.154667v68.650666a26.154667 26.154667 0 0 0 26.090667 26.133334h68.288z m155.242667 0a26.090667 26.090667 0 0 0 26.069333-26.133334v-68.650666a26.090667 26.090667 0 0 0-26.069333-26.154667h-68.309334a26.090667 26.090667 0 0 0-26.069333 26.154667v68.650666a26.090667 26.090667 0 0 0 26.069333 26.133334h68.309334z m-155.242667 156.053333a26.090667 26.090667 0 0 0 26.069333-26.154667v-68.650666a26.090667 26.090667 0 0 0-26.069333-26.133334h-68.309333a26.090667 26.090667 0 0 0-26.069334 26.133334v68.650666a26.154667 26.154667 0 0 0 26.090667 26.154667h68.288z"  horiz-adv-x="1024" />
      
      <glyph glyph-name="nav_li_icon_ziyuanzhongxin" unicode="&#59427;" d="M832 864a64 64 0 0 0 64-64v-832a64 64 0 0 0-64-64H192a64 64 0 0 0-64 64V800a64 64 0 0 0 64 64h640z m0-64H192v-832h640V800z m-144-320a80 80 0 1 0 0-160 80 80 0 0 0 0 160z m-192-48a32 32 0 1 0 0-64 32 32 0 0 0 0 64zM768 608v-64H256V608h512z m0 128v-64H256V736h512z"  horiz-adv-x="1024" />
      
      <glyph glyph-name="nav_li_icon_anjianyanpan" unicode="&#59428;" d="M723.104 13.92a28.704 28.704 0 0 0-11.168-39.04A410.912 410.912 0 0 0 512-76.672c-70.912 0-139.264 17.92-199.936 51.616a28.704 28.704 0 0 0 27.84 50.176A353.536 353.536 0 0 1 512-19.296c61.12 0 119.904 15.392 172.096 44.384a28.704 28.704 0 0 0 39.04-11.2zM512 848.608a112 112 0 0 0 28.704-220.288v-102.464a192.032 192.032 0 0 0 154.816-246.432l88.896-56.608a112 112 0 1 0-28.64-49.792l-85.44 54.4A191.808 191.808 0 0 0 512 144a191.616 191.616 0 0 0-147.968 69.632L271.616 154.88l-0.192 0.544a112 112 0 1 0-18.304 50.88l-1.408 3.904 82.72 52.64a192.032 192.032 0 0 0 148.864 263.04V628.32A112.032 112.032 0 0 0 512 848.64z m352-649.984a54.624 54.624 0 1 1 0-109.248 54.624 54.624 0 0 1 0 109.248z m-704 0a54.624 54.624 0 1 1 0-109.248 54.624 54.624 0 0 1 0 109.248z m352 272a134.624 134.624 0 1 1 0-269.248 134.624 134.624 0 0 1 0 269.248z m255.584 189.44a412.224 412.224 0 0 0 153.664-270.56 28.704 28.704 0 1 0-56.896-7.36 354.88 354.88 0 0 1-132.32 232.864 28.704 28.704 0 0 0 35.552 45.024z m-470.88-4.768a28.704 28.704 0 0 0-4.736-40.32 354.88 354.88 0 0 1-132.32-232.768 28.704 28.704 0 1 0-56.896 7.36 412.224 412.224 0 0 0 153.664 270.464 28.704 28.704 0 0 0 40.288-4.736zM512 791.232a54.624 54.624 0 1 1 0-109.248 54.624 54.624 0 0 1 0 109.248z"  horiz-adv-x="1024" />
      
      <glyph glyph-name="nav_li_icon_bukongyujing" unicode="&#59429;" d="M928 0v-64H96v64h832zM512 832c194.4 0 352-157.6 352-352v-416H160V480C160 674.4 317.6 832 512 832z m0-64a288 288 0 0 1-287.872-279.52L224 480v-351.968h576V480a288 288 0 0 1-279.52 287.872L512 768z m-19.84-152l46.24-16-56.032-161.568h128.256l-78.848-222.592-46.144 16.32 55.744 157.344h-127.776L492.16 616z"  horiz-adv-x="1024" />
      
      <glyph glyph-name="nav_li_icon_taishijiankong" unicode="&#59430;" d="M160 800v-768h768v-64H128a32 32 0 0 0-31.776 28.256L96 0V800h64z m176.448-369.6l1.728-313.664a32 32 0 0 0-28.096-31.904l-3.744-0.256a32.032 32.032 0 0 0-32.192 31.84l-1.696 272.896 64 41.056z m161.376 102.208l0.48-416a32 32 0 0 0-28.224-31.808l-3.744-0.224a32 32 0 0 0-32.032 32l-0.48 375.232 64 40.8z m184.864-95.36v-320.64a32 32 0 1 0-64 0v281.28l64 39.36z m167.136 103.456l0.48-424.096a32 32 0 0 0-28.224-31.808l-3.744-0.224a32 32 0 0 0-32.032 32l-0.48 384.768 64 39.36z m-313.28 190.912l96.224-155.2 170.72 106.016-21.792 41.408 192.864-14.272-362.464-221.312-95.52 154.112-248.672-161.568V557.44l268.608 174.208z"  horiz-adv-x="1024" />
      
      <glyph glyph-name="nav_li_icon_mubiaojiansuo" unicode="&#59431;" d="M733.984 182.432l181.312-188.448-46.144-44.384-181.28 188.48 46.112 44.352z m-312.352 624.96c201.632 0 365.12-163.52 365.12-365.12 0-201.696-163.488-365.152-365.12-365.152-201.664 0-365.12 163.456-365.12 365.12 0 201.664 163.456 365.12 365.12 365.12z m0-64a301.12 301.12 0 1 1 0-602.272 301.12 301.12 0 0 1 0 602.24z m0-45.12a256 256 0 0 0 255.872-248.064l0.128-7.968h-64A192 192 0 0 1 428.8 634.112l-7.2 0.128v64z"  horiz-adv-x="1024" />
      
      <glyph glyph-name="nav_li_icon_yunweikaifa" unicode="&#59432;" d="M544 381.696L672 160l-128-221.696H288L160 160l128 221.696h256zM270.304 807.68a318.24 318.24 0 0 0 329.792-75.2 316.768 316.768 0 0 0 92.928-226.208l-0.224-10.496-0.256-4.8 207.68-207.68a192 192 0 0 0 10.528-260.128l-5.536-6.208-4.992-5.184a192 192 0 0 0-257.28-12.896l32.64 56.544a128 128 0 0 1 184.224 177.536l-4.832 5.12-218.048 218.048a32 32 0 0 0-9.184 25.824 253.44 253.44 0 0 1-265.6 279.104l-9.6-0.64-8.576-0.96 93.952-93.952 4.064-4.48a82.88 82.88 0 0 0-1.088-107.424l-3.968-4.256-107.296-107.232-4.48-4.096a82.88 82.88 0 0 0-107.424 1.12l-4.256 3.968-92.96 92.928-0.896-8.544a253.664 253.664 0 0 1 60.16-188.288l6.656-7.424 5.44-5.632-32.896-56.992-4.16 3.744-7.264 7.04a318.24 318.24 0 0 0-75.2 329.792 32 32 0 0 0 49.952 14.72l2.88-2.56 133.536-133.536a19.104 19.104 0 0 1 22.048-3.68l2.272 1.536 2.4 2.144 106.24 106.24a19.104 19.104 0 0 1 3.648 22.048l-1.536 2.24-2.112 2.4-133.536 133.536a32 32 0 0 0 12.16 52.864z m236.704-489.952h-182.048l-91.072-157.696 91.072-157.728h182.048l91.072 157.728-91.072 157.696zM416 224a64 64 0 1 0 0-128 64 64 0 0 0 0 128z"  horiz-adv-x="1024" />
      
      <glyph glyph-name="nav_li_icon_butaizhuapai" unicode="&#59433;" d="M623.232 786.688a64 64 0 0 0 46.368-19.84l73.088-76.832a64 64 0 0 1 46.368-19.872H864a64 64 0 0 0 64-64V32a64 64 0 0 0-64-64H160a64 64 0 0 0-64 64V606.144a64 64 0 0 0 64 64h74.944a64 64 0 0 1 46.4 19.84l73.056 76.832a64 64 0 0 0 46.4 19.872h222.4z m0-64h-222.464l-73.088-76.8a128 128 0 0 0-85.248-39.552l-7.488-0.192H160V32h704V606.144h-74.944a128 128 0 0 0-87.424 34.464l-5.312 5.28-73.088 76.8zM512 479.872a192 192 0 1 0 0-384 192 192 0 0 0 0 384z m0-64a128 128 0 1 1 0-256 128 128 0 0 1 0 256zM272 544a48 48 0 1 0 0-96 48 48 0 0 0 0 96zM800 544v-64h-128v64h128z"  horiz-adv-x="1024" />
      
      <glyph glyph-name="nav_li_icon_yonghuzhongxin" unicode="&#59434;" d="M306.464 622.4a48.896 48.896 0 0 1-12.16 0.704l-4.8-0.352-14.496-1.856-3.2-0.32a49.472 49.472 0 0 0-20.16 2.08c-20.032 6.624-28.352 23.68-28.352 44.352 0 89.472 131.296 149.664 288.704 149.664 157.408 0 288.704-60.16 288.704-149.664 0-18.784-6.112-34.208-24-41.984a40.768 40.768 0 0 0-16.064-3.424l-5.12 0.128-9.408 1.056-6.432 0.64a35.552 35.552 0 0 1-5.024-0.064l-2.176-0.32-2.432-0.576-4-5.696c-5.44-7.424-11.424-14.368-17.856-20.8 7.2-22.56 10.912-46.4 10.912-70.72 0-121.28-92.16-220.576-207.104-220.576-114.944 0-207.104 99.264-207.104 220.576 0 28.736 5.184 56.736 15.072 82.752l-5.952 7.744-4.096 5.792-3.456 0.864z m66.464-60.16l-1.664-8.512c-1.6-9.312-2.368-18.816-2.368-28.48 0-86.976 64.64-156.576 143.104-156.576 78.496 0 143.104 69.6 143.104 156.576 0 10.688-0.96 21.184-2.88 31.424-32.736-15.68-71.456-24.64-115.04-26.88l-12-0.416-10.4-0.128c-56.704 0-103.904 10.72-141.856 32.992zM512 752.672c-100.48 0-183.488-28.64-213.088-60.8l-2.944-3.424-0.96-1.248 1.92 0.032c9.024 0.096 17.632-0.832 26.784-3.136l6.976-2.016 7.264-2.56 5.632-2.336a32 32 0 0 0 12.224-9.184l2.304-3.136 3.84-6.08c29.504-44.32 77.536-65.536 152.832-65.536 74.816 0 128.992 20.864 158.528 59.808l3.872 5.408 4.128 6.432a32 32 0 0 0 9.056 9.312l3.776 2.208 6.208 3.04c6.304 2.784 12.192 4.736 17.984 6.048l5.76 1.056 4.896 0.576-0.96 1.28c-24.96 31.36-101.312 60.32-196.352 63.904l-10.24 0.288L512 752.64z m2.272-28.16l53.056-53.024-53.056-53.088-53.056 53.088 53.056 53.056z m180-434.464a384 384 0 0 0 200.704-309.92l0.64-10.688-63.936-2.88a319.552 319.552 0 0 1-110.08 227.296l-2.688 2.24-0.32-6.208c-7.2-111.68-92.64-201.152-199.296-205.088l-7.296-0.128c-110.048 0-199.232 91.008-206.624 205.216l-0.32 6.24-2.656-2.272a319.584 319.584 0 0 1-109.44-217.024l-0.64-10.24-63.936 2.848a383.936 383.936 0 0 0 201.376 320.64c24.992 13.504 53.888-9.888 45.92-37.152a169.28 169.28 0 0 1-6.784-47.68c0-64.896 35.968-120.128 86.848-144l33.568 98.592h50.976l29.12-98.016c50.272 24.16 85.696 79.04 85.696 143.424 0 16.384-2.304 32.416-6.752 47.68-8 27.296 20.928 50.624 45.92 37.12z m-180-13.504l53.056-53.056-33.536-32.736h-39.84l-32.736 32.736 53.056 53.056z"  horiz-adv-x="1024" />
      
      <glyph glyph-name="anjianguanli-liebiaomoshi" unicode="&#59425;" d="M132-32c-32.8 0-59.2 26.4-59.2 59.2s26.4 59.2 59.2 59.2h760c32.8 0 59.2-26.4 59.2-59.2S924.8-32 892-32H132z m0 356.8c-32.8 0-59.2 26.4-59.2 59.2s26.4 59.2 59.2 59.2h760c32.8 0 59.2-26.4 59.2-59.2s-26.4-59.2-59.2-59.2H132z m0 356c-32.8 0-59.2 26.4-59.2 59.2S99.2 799.2 132 799.2h760c32.8 0 59.2-26.4 59.2-59.2s-26.4-59.2-59.2-59.2H132z"  horiz-adv-x="1024" />
      
      <glyph glyph-name="anjianguanli-kapianmoshi" unicode="&#59426;" d="M844.8 51.2V272.8H623.2v-221.6h221.6m-444 0V272.8H179.2v-221.6h221.6m444 444V716.8H623.2v-221.6h221.6m-444 0V716.8H179.2v-221.6h221.6m472-527.2H595.2c-30.4 0-55.2 24.8-55.2 55.2V300.8c0 30.4 24.8 55.2 55.2 55.2h277.6c30.4 0 55.2-24.8 55.2-55.2v-277.6c0-30.4-24.8-55.2-55.2-55.2z m-444 0H151.2c-30.4 0-55.2 24.8-55.2 55.2V300.8c0 30.4 24.8 55.2 55.2 55.2h277.6c30.4 0 55.2-24.8 55.2-55.2v-277.6c0-30.4-24.8-55.2-55.2-55.2z m444 444H595.2c-30.4 0-55.2 24.8-55.2 55.2V744.8c0 30.4 24.8 55.2 55.2 55.2h277.6c30.4 0 55.2-24.8 55.2-55.2v-277.6c0-30.4-24.8-55.2-55.2-55.2z m-444 0H151.2c-30.4 0-55.2 24.8-55.2 55.2V744.8c0 30.4 24.8 55.2 55.2 55.2h277.6c30.4 0 55.2-24.8 55.2-55.2v-277.6c0-30.4-24.8-55.2-55.2-55.2z"  horiz-adv-x="1024" />
      
      <glyph glyph-name="anjianbukong" unicode="&#59424;" d="M239.813079 639.561128A256.438872 256.438872 0 1 1 496.251951 896a256.545278 256.545278 0 0 1-256.438872-256.438872zM535.515828 138.707281a4.788278 4.788278 0 0 0 0 1.276874 227.6028 227.6028 0 0 0 81.400721 174.080495 381.785342 381.785342 0 0 1-56.501677 4.149841H431.344187A384.871121 384.871121 0 0 1 47.217909-66.975848h488.297919zM946.882085-68.03991h-8.193275V139.771342a171.633154 171.633154 0 0 1-343.159901 0.85125 3.298591 3.298591 0 0 1 0-0.957656V-68.03991H582.866574a30.00654 30.00654 0 1 1 0-59.906674h364.015511a30.00654 30.00654 0 0 1 0 59.906674z m-198.12829 36.071692l14.045614 114.918665h-73.845882l92.360556 152.267231-13.939208-115.450696h73.739476z"  horiz-adv-x="1024" />
      
      <glyph glyph-name="a-03butaicaiji3" unicode="&#59423;" d="M13.993618 603.049661h68.321544a13.719185 13.719185 0 0 1 13.719185 13.719185v141.764916a41.249018 41.249018 0 0 0 41.157556 41.157556h141.764916a13.719185 13.719185 0 0 1 13.719186 13.719186V882.280815A13.810647 13.810647 0 0 1 279.231203 895.725616h-210.360843a69.144695 69.144695 0 0 1-68.870311-68.595927v-210.360843a13.719185 13.719185 0 0 1 13.993569-13.719185zM279.231203-31.78278H137.191903a41.249018 41.249018 0 0 0-41.157556 41.157557v141.764916a13.719185 13.719185 0 0 1-13.719185 13.719185H13.993618a13.719185 13.719185 0 0 1-13.993569-13.719185v-210.360843a68.961772 68.961772 0 0 1 68.77885-68.77885h210.360843a13.719185 13.719185 0 0 1 13.719185 13.719185v68.595928a13.719185 13.719185 0 0 1-13.627724 13.902107zM955.495583 895.725616h-210.360843a13.719185 13.719185 0 0 1-13.444802-13.627724v-68.687388a13.719185 13.719185 0 0 1 13.719186-13.719186h141.764916a41.249018 41.249018 0 0 0 41.157556-41.157556v-141.764916a13.719185 13.719185 0 0 1 13.719185-13.719185h68.595928a13.719185 13.719185 0 0 1 13.719185 13.719185v210.360843a68.870311 68.870311 0 0 1-68.870311 68.595927zM1010.555247 164.858878h-68.504466a13.719185 13.719185 0 0 1-13.719185-13.719185v-141.764916a41.249018 41.249018 0 0 0-41.157556-41.157557H745.317662a13.719185 13.719185 0 0 1-13.719185-13.719185v-68.595927a13.719185 13.719185 0 0 1 13.719185-13.719186h210.360844a69.053233 69.053233 0 0 1 68.87031 68.77885v210.360843a13.719185 13.719185 0 0 1-13.993569 13.536263zM652.027202 231.991426a57.71204 57.71204 0 0 1-9.146124 27.43837l-86.979636 131.978564a21.401929 21.401929 0 0 0-3.01822 16.463023l11.15827 48.8403 12.164345-17.377635a46.279385 46.279385 0 0 1 44.633083-25.609146l119.997142 8.414433a46.187924 46.187924 0 0 1 42.620936 49.389068v1.188996a45.730618 45.730618 0 0 1-49.206145 42.620936l-92.46731-6.402286-58.077885 85.973562c-0.823151 1.188996-1.646302 2.286531-2.560914 3.384065a124.570204 124.570204 0 0 1-35.029654 35.395499 97.040372 97.040372 0 0 1 13.810647-1.097535 89.449089 89.449089 0 1 1-47.742766 14.08503 49.023223 49.023223 0 0 1-16.645944-1.280457 51.584137 51.584137 0 0 1-9.786353-2.652376l-162.892461-64.022865a54.145052 54.145052 0 0 1-9.146124-5.030368 46.64523 46.64523 0 0 1-23.871383-43.809932l9.146124-127.496964a46.736692 46.736692 0 0 1 49.937835-43.352625 46.279385 46.279385 0 0 1 31.919971 15.365487 47.37692 47.37692 0 0 1 9.146124 17.74348l-65.85209-342.705252a54.876742 54.876742 0 0 1 53.504823-64.937478 31.005359 31.005359 0 0 1 4.115756 0 54.876742 54.876742 0 0 1 48.8403 39.602716l63.291175 223.165416 44.084316-56.888889a20.121472 20.121472 0 0 0 4.207217-11.249732l9.146124-125.850661a55.608432 55.608432 0 0 1 19.29832-38.688103 56.24866 56.24866 0 0 1 41.066095-13.810646 56.705966 56.705966 0 0 1 52.49875 60.364415zM392.002907 400.463023a40.242944 40.242944 0 0 1 0 8.14005l-6.493748 93.839228 28.352984 11.158271z"  horiz-adv-x="1024" />
      
      <glyph glyph-name="a-anjianxiangqing1" unicode="&#59422;" d="M639.957333 724.6933329999999l-298.666666 0.64A85.162667 85.162667 0 0 1 256 640.170667V128a85.333333 85.333333 0 0 1 85.333333-85.333333h383.957334a85.333333 85.333333 0 0 1 85.333333 85.333333V554.624l-170.666667 170.069333z m42.154667-485.12a26.282667 26.282667 0 0 0-26.282667-26.325333H410.197333a26.282667 26.282667 0 1 0 0 52.608h245.546667c14.634667 0 26.368-11.776 26.368-26.325333z m0 128.341334a26.282667 26.282667 0 0 0-26.282667-26.282667H410.197333a26.282667 26.282667 0 1 0 0 52.608h245.546667c14.634667 0 26.368-11.776 26.368-26.325333zM682.666667 554.666667A42.837333 42.837333 0 0 0 639.872 597.333333V682.666667L767.957333 554.666667h-85.333333z"  horiz-adv-x="1024" />
      
      </font>
</defs>
</svg>
