<svg t="1632292437431" class="icon" viewBox="0 0 1024 1024" version="1.1" xmlns="http://www.w3.org/2000/svg" p-id="18762" width="32" height="32"><path d="M498.72 959.73c-12.73 0-25.46-4.86-35.17-14.57-19.43-19.43-19.43-50.91 0-70.35L826.35 512l-362.8-362.81c-19.43-19.43-19.43-50.91 0-70.35s50.91-19.43 70.35 0l397.98 397.98c19.43 19.43 19.43 50.91 0 70.35L533.89 945.15c-9.71 9.72-22.44 14.58-35.17 14.58z" fill="#078199" p-id="18763"></path><path d="M127.3 959.73c-12.73 0-25.46-4.86-35.17-14.57-19.43-19.43-19.43-50.91 0-70.35L454.93 512 92.13 149.19c-19.43-19.43-19.43-50.91 0-70.35s50.91-19.43 70.35 0l397.98 397.98c19.43 19.43 19.43 50.91 0 70.35L162.47 945.15c-9.71 9.72-22.44 14.58-35.17 14.58z" fill="#078199" p-id="18764"></path></svg>