<svg t="1631686634423" class="icon" viewBox="0 0 1024 1024" version="1.1" xmlns="http://www.w3.org/2000/svg" p-id="2159" width="48" height="48"><path d="M718.336 672.256h118.784c19.968 0 32.768-13.312 32.768-32.768 0-19.968-13.312-32.768-32.768-32.768h-204.288c-6.656 0-13.312 6.656-19.968 13.312s-6.656 13.312-6.656 19.968v197.632c0 19.968 13.312 32.768 32.768 32.768 19.968 0 32.768-13.312 32.768-32.768v-118.784l178.176 178.176c13.312 13.312 32.768 13.312 46.08 0s13.312-32.768 0-46.08l-177.664-178.688zM850.432 124.928l-118.784 118.784-59.392 59.392V184.32c0-19.968-13.312-32.768-32.768-32.768-19.968 0-32.768 13.312-32.768 32.768v197.632c0 19.968 13.312 32.768 32.768 32.768h197.632c19.968 0 32.768-13.312 32.768-32.768s-13.312-32.768-32.768-32.768h-118.784l59.392-59.392 118.784-118.784c13.312-13.312 13.312-32.768 0-46.08s-33.28-12.8-46.08 0zM381.952 151.552c-19.968 0-32.768 13.312-32.768 32.768v118.784L289.792 243.712 171.008 124.928c-13.312-13.312-32.768-13.312-46.08 0s-13.312 32.768 0 46.08l118.784 118.784 59.392 59.392H184.32c-19.968 0-32.768 13.312-32.768 32.768S164.864 414.72 184.32 414.72h197.632c19.968 0 32.768-13.312 32.768-32.768V184.32c0.512-19.456-12.8-32.768-32.768-32.768zM381.952 606.208H184.32c-19.968 0-32.768 13.312-32.768 32.768 0 19.968 13.312 32.768 32.768 32.768h118.784l-59.392 59.392L124.928 849.92c-13.312 13.312-13.312 32.768 0 46.08s32.768 13.312 46.08 0l118.784-118.784 59.392-59.392v118.784c0 19.968 13.312 32.768 32.768 32.768s32.768-13.312 32.768-32.768v-197.632c0.512-19.456-12.8-32.768-32.768-32.768z" p-id="2160" fill="#ffffff"></path></svg>