<svg t="1631500963019" class="icon" viewBox="0 0 1024 1024" version="1.1" xmlns="http://www.w3.org/2000/svg" p-id="22145" width="32" height="32"><path d="M512.868787 65.942875c-0.868787-0.868787-2.608407-0.868787-2.608408 0 0 0-158.212348 127.786385-372.058784 127.786385v395.529335s9.561773 264.265756 373.797382 369.450376c349.45702-89.537246 373.797381-369.450377 373.797381-369.450376V193.72926c-214.715223 0-372.927571-127.786385-372.927571-127.786385z m257.31239 296.429293L507.652995 630.984928c-6.084579 6.084579-14.777565 9.561773-23.470551 9.561773-6.954389 0-14.777565-2.608407-19.993356-6.954389L281.636379 484.942761c-13.908778-11.30037-15.647375-31.29475-4.345982-45.203528 11.30037-13.908778 31.29475-15.647375 45.203528-4.345982l159.949922 129.524982 242.533802-246.879783c12.170181-13.038968 33.033347-13.038968 46.072315 0 12.170181 11.30037 12.170181 32.163537-0.868787 44.333718z" p-id="22146" fill="#28CE57"></path></svg>